<?xml version="1.0" encoding="UTF-8" ?>
<!DOCTYPE svg PUBLIC "-//W3C//DTD SVG 1.1//EN" "http://www.w3.org/Graphics/SVG/1.1/DTD/svg11.dtd">
<svg width="1250pt" height="739pt" viewBox="0 0 1250 739" version="1.1" xmlns="http://www.w3.org/2000/svg">
<g id="#b86159d8">
<path fill="#b86159" opacity="0.85" d=" M 1213.79 232.87 C 1215.39 232.24 1217.93 232.09 1218.74 234.00 C 1219.08 235.67 1219.11 237.39 1219.21 239.09 C 1219.32 266.40 1219.08 293.70 1219.01 321.01 C 1219.52 335.90 1217.95 350.92 1220.28 365.71 C 1223.36 369.53 1230.34 365.12 1232.84 370.02 C 1233.21 372.58 1233.37 376.06 1230.99 377.73 C 1218.33 378.35 1205.65 376.97 1193.00 377.92 C 1188.10 377.63 1183.01 378.76 1178.29 377.18 C 1190.88 375.52 1203.56 377.59 1216.19 376.69 C 1221.04 376.36 1225.96 377.58 1230.77 376.57 C 1232.53 374.70 1232.16 371.84 1231.31 369.64 C 1227.69 368.51 1223.78 369.03 1220.16 367.96 C 1218.10 366.38 1218.54 363.33 1218.14 361.04 C 1217.32 347.37 1218.38 333.67 1217.84 319.99 C 1217.41 312.34 1218.06 304.69 1218.00 297.04 C 1217.99 281.36 1217.96 265.68 1218.00 250.01 C 1217.91 244.76 1219.01 239.36 1217.57 234.22 C 1217.15 234.00 1216.30 233.55 1215.88 233.33 C 1211.69 234.30 1207.95 236.57 1203.89 237.92 C 1195.79 240.75 1187.75 243.94 1179.24 245.28 C 1181.00 243.70 1183.43 243.50 1185.57 242.69 C 1195.19 240.10 1204.60 236.72 1213.79 232.87 Z" />
<path fill="#b86159" opacity="0.85" d=" M 833.05 264.22 C 833.88 266.36 834.59 268.60 834.69 270.92 C 835.12 299.59 835.01 328.28 835.01 356.95 C 834.69 360.49 835.08 364.80 832.40 367.54 C 829.12 369.08 825.36 369.24 821.80 369.24 C 820.65 369.48 820.16 368.29 819.48 367.68 C 823.50 367.58 827.70 367.85 831.57 366.55 C 834.06 363.74 833.37 359.49 833.63 356.01 C 833.40 347.33 834.04 338.67 833.90 330.00 C 833.28 323.00 833.58 315.97 833.64 308.96 C 833.49 294.04 833.48 279.11 833.05 264.22 Z" />
<path fill="#b86159" opacity="0.85" d=" M 335.69 276.42 C 338.09 274.07 340.24 270.61 344.07 270.79 C 346.05 270.62 347.13 272.74 347.43 274.41 C 348.18 280.73 346.45 287.09 347.52 293.41 C 355.30 294.46 363.18 294.34 370.95 293.38 C 383.66 293.90 396.39 294.04 409.10 293.39 C 412.67 293.15 413.20 297.46 412.80 300.11 C 413.10 303.14 409.36 303.25 407.41 304.21 C 407.44 306.15 407.53 308.10 407.71 310.04 C 407.20 308.37 406.73 306.66 406.63 304.91 C 407.95 302.22 412.98 301.86 412.18 298.04 C 412.75 294.27 408.59 294.46 405.99 294.45 C 396.00 294.65 386.01 294.66 376.02 294.48 C 366.30 294.64 356.45 295.89 346.80 294.12 C 345.57 287.63 347.37 281.03 346.50 274.53 C 346.31 271.35 341.87 271.10 340.15 273.20 C 334.64 278.97 329.15 284.89 322.39 289.24 C 326.32 284.46 331.65 281.10 335.69 276.42 Z" />
<path fill="#b86159" opacity="0.85" d=" M 311.15 297.34 C 315.10 295.18 318.33 291.98 322.09 289.53 C 318.52 294.67 312.61 297.07 307.82 300.79 C 306.08 301.96 304.42 304.67 306.66 306.27 C 310.35 308.15 314.79 307.37 318.82 307.72 C 319.06 313.48 319.53 319.23 319.25 324.99 C 318.66 338.54 319.14 352.10 318.72 365.64 C 317.18 360.53 318.23 355.18 317.99 349.95 C 317.80 336.08 318.56 322.20 317.94 308.33 C 314.32 308.07 310.63 308.53 307.08 307.74 C 305.17 306.66 303.95 304.07 305.08 302.03 C 306.47 299.80 309.00 298.70 311.15 297.34 Z" />
<path fill="#b86159" opacity="0.85" d=" M 502.00 293.26 C 514.65 293.63 527.34 294.28 539.99 293.32 C 541.90 293.04 544.22 293.96 544.62 296.04 C 545.16 300.04 544.09 304.06 544.11 308.08 C 543.96 319.39 543.97 330.71 543.98 342.03 C 543.72 349.56 543.98 357.93 548.97 364.05 C 556.74 368.75 567.92 360.80 567.12 351.97 C 567.14 337.29 567.02 322.62 566.99 307.95 C 566.09 302.71 559.08 304.91 556.21 301.71 C 555.60 299.35 555.27 296.21 557.29 294.42 C 559.01 293.49 561.11 293.76 563.01 293.63 C 573.31 293.76 583.63 293.69 593.92 293.45 C 599.10 294.00 596.82 300.25 596.19 303.55 C 596.18 300.77 596.17 297.96 595.58 295.24 C 590.83 294.12 585.90 295.32 581.08 295.04 C 573.23 295.31 565.29 294.31 557.51 295.53 C 556.23 297.55 556.25 301.22 559.06 301.89 C 561.79 303.18 565.42 303.17 567.37 305.75 C 568.94 309.23 568.45 313.21 568.48 316.93 C 567.97 327.60 568.49 338.27 568.36 348.95 C 568.24 352.48 568.20 356.24 566.34 359.38 C 564.07 363.56 559.41 365.81 554.88 366.55 C 552.11 366.97 548.82 366.31 547.26 363.76 C 543.87 358.56 542.81 352.16 542.95 346.04 C 543.25 330.84 542.50 315.61 543.69 300.44 C 543.82 298.23 543.94 294.47 540.87 294.43 C 531.60 295.14 522.29 295.11 512.99 294.98 C 499.81 294.33 486.62 294.74 473.44 294.75 C 473.36 296.66 473.18 298.60 473.42 300.52 C 475.74 302.69 479.15 303.22 481.43 305.44 C 483.12 309.50 481.33 313.91 479.91 317.78 C 476.62 325.98 474.99 334.93 470.00 342.38 C 466.89 336.08 464.65 329.41 462.16 322.86 C 460.12 317.06 457.15 311.41 457.25 305.11 C 458.80 304.33 460.42 303.65 461.85 302.66 C 462.92 300.66 462.66 298.24 463.00 296.05 C 456.67 295.98 450.33 295.69 444.00 295.95 C 436.62 296.30 429.24 295.34 421.87 296.01 C 421.98 298.20 421.97 300.42 422.39 302.58 C 424.62 303.82 427.23 304.30 429.34 305.76 C 432.24 309.14 431.58 314.11 430.27 318.03 C 429.82 313.89 431.30 308.49 427.40 305.62 C 425.34 304.76 423.10 304.50 420.96 303.92 C 420.51 301.12 419.84 298.01 421.32 295.39 C 424.65 293.89 428.41 294.62 431.95 294.63 C 441.85 295.18 451.76 294.14 461.66 294.45 C 465.07 295.25 463.93 299.47 463.96 302.01 C 463.49 304.85 459.98 304.78 457.98 306.02 C 458.34 310.58 460.64 314.65 461.99 318.95 C 464.74 325.73 466.49 332.98 470.30 339.27 C 473.70 333.12 475.69 326.36 477.84 319.71 C 479.21 315.34 481.85 310.97 480.84 306.25 C 478.87 303.54 475.11 304.01 472.42 302.49 C 470.39 300.02 471.73 296.59 471.93 293.75 C 481.92 292.62 491.99 294.18 502.00 293.26 Z" />
<path fill="#b86159" opacity="0.85" d=" M 500.25 303.54 C 503.49 302.62 506.97 302.22 510.32 302.75 C 513.35 303.24 515.86 305.88 515.96 309.00 C 516.70 319.96 515.84 330.98 516.24 341.96 C 516.47 348.24 516.09 354.73 518.30 360.73 C 520.44 366.62 524.66 371.41 528.57 376.20 C 522.56 372.57 519.02 365.91 516.72 359.50 C 514.69 352.86 514.85 345.85 515.11 338.99 C 515.50 329.30 514.87 319.62 514.98 309.93 C 515.34 305.98 511.33 303.03 507.65 303.38 C 505.23 303.64 502.77 303.71 500.43 304.37 C 498.00 305.52 497.14 308.34 495.62 310.37 C 496.43 307.75 497.24 304.42 500.25 303.54 Z" />
<path fill="#b86159" opacity="0.85" d=" M 366.95 307.03 C 369.21 306.14 370.89 304.27 373.00 303.09 C 375.86 303.26 377.54 305.91 378.71 308.21 C 381.91 314.63 383.98 321.54 387.02 328.05 C 393.63 342.70 399.18 357.77 405.39 372.60 C 406.52 374.97 407.66 377.71 410.15 378.95 C 413.93 379.86 416.31 376.23 417.86 373.41 C 417.31 376.18 416.03 379.39 412.98 380.13 C 410.93 380.91 409.00 379.64 407.14 378.97 C 396.62 354.79 387.02 330.27 376.74 306.00 C 375.48 305.22 374.23 304.41 372.89 303.79 C 371.47 305.06 370.50 306.76 369.03 307.97 C 361.70 308.90 354.26 307.74 346.95 308.84 C 346.31 315.52 346.40 322.24 346.18 328.95 C 346.17 338.46 345.43 348.09 347.39 357.48 C 348.39 360.75 349.94 364.59 353.62 365.52 C 358.11 366.96 362.44 364.22 366.86 363.80 C 367.78 364.45 368.69 365.12 369.60 365.82 C 363.73 364.36 357.78 368.25 352.08 365.91 C 347.53 363.30 346.09 357.62 345.64 352.75 C 345.20 343.48 344.86 334.18 345.45 324.91 C 345.77 319.42 345.30 313.83 346.52 308.43 C 353.00 305.55 360.22 308.43 366.95 307.03 Z" />
<path fill="#b86159" opacity="0.85" d=" M 65.64 308.61 C 70.91 306.85 76.62 308.44 81.93 309.35 C 84.85 309.93 87.79 310.96 89.87 313.21 C 82.60 309.80 74.32 308.27 66.35 309.24 C 65.39 317.46 66.01 325.77 65.89 334.03 C 66.08 343.02 64.83 352.31 67.78 361.00 C 68.76 364.09 70.45 367.50 73.84 368.44 C 79.89 370.10 86.39 368.99 92.14 366.76 C 88.95 370.68 83.48 370.21 78.93 370.49 C 74.75 370.69 69.85 369.08 68.18 364.89 C 63.01 352.56 64.76 338.92 64.58 325.92 C 65.21 320.17 63.01 314.04 65.64 308.61 Z" />
<path fill="#b86159" opacity="0.85" d=" M 493.48 314.51 C 493.69 313.03 494.23 311.50 495.53 310.63 C 496.29 311.93 495.23 315.01 493.48 314.51 Z" />
<path fill="#b86159" opacity="0.85" d=" M 90.08 313.33 C 91.32 311.75 94.61 313.46 93.61 315.35 C 92.36 314.80 91.20 314.09 90.08 313.33 Z" />
<path fill="#b86159" opacity="0.85" d=" M 888.12 321.74 C 888.84 328.52 888.76 335.35 888.25 342.14 C 888.47 335.34 887.92 328.54 888.12 321.74 Z" />
<path fill="#b86159" opacity="0.85" d=" M 1153.67 364.31 C 1155.66 362.63 1157.79 361.13 1160.06 359.83 C 1159.60 361.05 1159.18 362.28 1158.76 363.50 C 1157.06 363.76 1155.35 364.02 1153.67 364.31 Z" />
<path fill="#b86159" opacity="0.85" d=" M 318.91 365.92 C 322.19 371.30 326.78 376.12 332.81 378.32 C 341.54 380.68 350.62 378.95 359.25 376.99 C 352.95 379.79 345.90 380.87 339.04 380.28 C 330.35 380.34 321.22 374.54 318.91 365.92 Z" />
<path fill="#b86159" opacity="0.85" d=" M 369.35 366.75 C 369.65 368.19 370.00 369.64 370.06 371.13 C 367.14 374.07 363.15 375.61 359.32 376.96 C 363.39 374.40 369.05 372.40 369.35 366.75 Z" />
<path fill="#b86159" opacity="0.85" d=" M 880.34 369.73 C 877.71 369.48 880.20 366.36 881.31 368.56 C 881.07 368.85 880.59 369.44 880.34 369.73 Z" />
<path fill="#b86159" opacity="0.85" d=" M 599.05 371.20 C 600.45 370.73 600.92 371.20 600.48 372.61 C 599.07 373.07 598.59 372.61 599.05 371.20 Z" />
<path fill="#b86159" opacity="0.85" d=" M 812.18 372.18 C 813.81 371.71 814.35 372.28 813.79 373.89 C 812.13 374.35 811.59 373.78 812.18 372.18 Z" />
<path fill="#b86159" opacity="0.85" d=" M 638.51 377.28 C 641.34 376.07 644.20 374.05 647.43 375.12 C 648.88 374.92 650.33 374.57 651.82 374.56 C 653.42 375.17 654.60 376.48 655.98 377.48 C 650.17 378.12 644.32 377.61 638.51 377.28 Z" />
<path fill="#b86159" opacity="0.85" d=" M 233.35 375.24 C 235.01 375.92 236.66 376.60 238.33 377.29 C 238.24 377.86 238.08 378.99 238.00 379.56 C 239.83 379.55 241.67 379.55 243.50 379.50 C 238.75 380.83 233.52 380.48 229.31 377.77 L 229.73 376.75 C 231.16 377.41 232.60 378.04 234.05 378.67 C 233.82 377.52 233.58 376.38 233.35 375.24 Z" />
<path fill="#b86159" opacity="0.85" d=" M 866.20 474.57 C 867.65 474.24 867.67 476.77 866.72 477.36 C 865.24 477.68 865.26 475.16 866.20 474.57 Z" />
</g>
<g id="#c3201dff">
<path fill="#c3201d" opacity="1.00" d=" M 856.53 233.81 C 858.13 233.30 859.86 233.45 861.54 233.36 C 862.94 242.19 862.08 251.19 861.87 260.08 C 861.74 273.85 861.35 287.61 861.90 301.38 C 865.30 299.38 868.05 296.32 871.87 295.05 C 878.13 292.01 885.28 291.55 892.11 292.08 C 899.99 293.87 907.61 298.26 912.04 305.16 C 916.72 313.02 914.99 322.39 915.45 331.06 C 916.02 338.05 914.99 345.05 915.56 352.04 C 915.59 357.18 915.06 362.34 915.48 367.48 C 919.06 369.20 923.71 367.42 926.82 370.15 C 927.54 372.81 927.74 377.02 924.04 377.28 C 910.72 376.75 897.28 375.70 884.00 377.35 C 882.49 377.27 881.13 376.59 879.74 376.15 C 879.85 375.63 880.08 374.58 880.20 374.06 C 879.16 372.85 878.41 370.65 880.34 369.73 C 880.59 369.44 881.07 368.85 881.31 368.56 C 882.55 368.63 883.79 368.71 885.05 368.79 L 885.73 367.84 C 886.72 366.43 887.72 364.89 887.72 363.09 C 888.06 356.11 887.85 349.12 888.25 342.14 C 888.76 335.35 888.84 328.52 888.12 321.74 C 887.43 316.24 887.20 309.22 881.77 306.13 C 875.41 302.74 867.72 306.41 864.17 312.13 C 862.15 314.93 862.55 318.55 862.29 321.80 C 861.75 333.83 862.17 345.89 861.95 357.94 C 862.07 361.14 861.67 364.66 863.38 367.53 C 865.34 368.63 867.61 368.92 869.76 369.49 C 869.88 371.91 870.21 374.40 869.58 376.80 C 867.69 378.22 865.13 377.54 862.96 377.64 C 849.08 376.97 835.18 378.04 821.31 377.41 C 820.88 375.17 820.58 372.92 820.37 370.67 C 815.34 375.38 808.61 377.59 801.89 378.36 C 795.17 380.53 787.77 380.04 781.12 377.89 C 776.24 375.09 770.67 371.45 769.60 365.48 C 769.11 363.35 768.79 361.18 768.71 359.00 C 768.64 341.97 769.01 324.93 768.62 307.90 C 764.53 307.50 760.39 307.98 756.36 307.07 C 756.18 305.32 756.02 303.56 755.90 301.81 C 757.87 300.01 760.17 298.67 762.51 297.40 C 772.63 290.41 781.72 282.04 790.01 272.97 C 791.45 271.21 793.74 270.67 795.93 271.18 C 797.88 273.29 797.99 276.29 797.76 279.00 C 797.34 283.92 797.28 288.86 797.57 293.79 C 805.94 294.24 814.34 293.83 822.72 294.15 C 822.70 298.38 822.13 302.68 820.59 306.64 C 812.96 308.80 804.85 307.06 797.04 307.89 C 796.20 323.23 796.60 338.63 796.79 353.99 C 796.51 357.85 798.75 361.15 800.83 364.19 C 801.82 366.04 804.18 365.65 805.94 365.89 C 809.43 366.20 812.85 365.38 816.18 364.43 C 818.35 363.39 818.49 366.53 819.48 367.68 C 820.16 368.29 820.65 369.48 821.80 369.24 C 825.36 369.24 829.12 369.08 832.40 367.54 C 835.08 364.80 834.69 360.49 835.01 356.95 C 835.01 328.28 835.12 299.59 834.69 270.92 C 834.59 268.60 833.88 266.36 833.05 264.22 C 831.72 258.13 825.36 256.58 820.57 254.14 C 820.27 252.16 820.57 250.17 820.83 248.21 C 824.90 246.77 828.97 245.20 833.29 244.69 C 834.65 242.91 836.96 242.62 838.89 241.77 C 844.86 239.33 850.53 236.19 856.53 233.81 M 812.18 372.18 C 811.59 373.78 812.13 374.35 813.79 373.89 C 814.35 372.28 813.81 371.71 812.18 372.18 Z" />
<path fill="#c3201d" opacity="1.00" d=" M 1203.89 237.92 C 1207.95 236.57 1211.69 234.30 1215.88 233.33 C 1216.30 233.55 1217.15 234.00 1217.57 234.22 C 1219.01 239.36 1217.91 244.76 1218.00 250.01 C 1217.96 265.68 1217.99 281.36 1218.00 297.04 C 1218.06 304.69 1217.41 312.34 1217.84 319.99 C 1218.38 333.67 1217.32 347.37 1218.14 361.04 C 1218.54 363.33 1218.10 366.38 1220.16 367.96 C 1223.78 369.03 1227.69 368.51 1231.31 369.64 C 1232.16 371.84 1232.53 374.70 1230.77 376.57 C 1225.96 377.58 1221.04 376.36 1216.19 376.69 C 1203.56 377.59 1190.88 375.52 1178.29 377.18 L 1177.50 377.26 C 1177.08 374.41 1176.37 371.37 1177.57 368.61 C 1180.92 367.81 1184.43 368.32 1187.83 367.74 C 1190.98 366.16 1190.31 361.96 1190.65 359.02 C 1190.68 330.01 1190.78 300.99 1190.71 271.98 C 1190.60 268.20 1190.82 264.22 1189.31 260.68 C 1186.15 255.56 1179.20 255.90 1175.39 251.56 C 1175.36 249.90 1175.37 248.24 1175.39 246.59 C 1176.65 246.14 1177.92 245.64 1179.24 245.28 C 1187.75 243.94 1195.79 240.75 1203.89 237.92 Z" />
<path fill="#c3201d" opacity="1.00" d=" M 17.24 239.22 C 20.75 238.36 24.39 238.88 27.96 238.78 C 43.99 239.03 60.01 238.53 76.03 238.96 C 87.80 238.85 99.86 238.93 111.16 242.65 C 116.86 245.68 122.68 249.54 125.54 255.57 C 130.10 264.19 130.61 275.14 126.04 283.86 C 121.88 293.16 112.66 298.60 103.81 302.72 C 111.10 305.55 118.59 308.27 124.63 313.43 C 132.02 318.91 136.53 327.92 137.30 337.01 C 137.19 342.71 137.29 348.61 135.09 353.99 C 132.53 360.47 129.09 367.21 122.80 370.79 C 113.45 376.09 102.48 376.85 92.01 377.95 C 85.98 378.03 79.98 379.03 73.95 378.62 C 55.39 377.20 36.76 378.44 18.18 377.74 C 18.02 374.85 18.27 371.97 18.71 369.12 C 23.09 368.20 27.98 369.16 32.02 367.01 C 34.71 363.34 33.83 358.29 34.34 353.98 C 34.67 327.65 34.44 301.30 34.48 274.97 C 33.88 268.62 34.10 262.25 33.86 255.90 C 33.84 252.95 32.35 249.49 29.19 248.83 C 25.14 248.05 20.96 248.53 16.87 248.05 C 16.75 245.11 16.38 242.08 17.24 239.22 M 65.60 251.19 C 65.25 257.47 64.85 263.76 65.07 270.05 C 65.41 279.69 64.92 289.35 65.51 298.99 C 74.30 299.92 84.08 299.09 91.03 293.04 C 98.00 285.70 99.16 274.84 97.70 265.24 C 96.75 261.06 94.00 257.69 91.61 254.25 C 88.45 252.00 84.89 250.40 81.38 248.78 C 76.76 247.33 71.77 247.18 67.01 247.88 C 66.13 248.76 65.67 249.96 65.60 251.19 M 65.64 308.61 C 63.01 314.04 65.21 320.17 64.58 325.92 C 64.76 338.92 63.01 352.56 68.18 364.89 C 69.85 369.08 74.75 370.69 78.93 370.49 C 83.48 370.21 88.95 370.68 92.14 366.76 C 96.17 365.39 98.32 361.73 100.60 358.44 C 101.87 354.61 103.65 350.89 103.84 346.79 C 104.39 339.10 104.62 330.77 100.67 323.86 C 99.59 320.19 97.03 317.06 93.61 315.35 C 94.61 313.46 91.32 311.75 90.08 313.33 L 89.87 313.21 C 87.79 310.96 84.85 309.93 81.93 309.35 C 76.62 308.44 70.91 306.85 65.64 308.61 Z" />
<path fill="#c3201d" opacity="1.00" d=" M 340.15 273.20 C 341.87 271.10 346.31 271.35 346.50 274.53 C 347.37 281.03 345.57 287.63 346.80 294.12 C 356.45 295.89 366.30 294.64 376.02 294.48 C 386.01 294.66 396.00 294.65 405.99 294.45 C 408.59 294.46 412.75 294.27 412.18 298.04 C 412.98 301.86 407.95 302.22 406.63 304.91 C 406.73 306.66 407.20 308.37 407.71 310.04 C 411.97 320.95 414.93 332.32 419.21 343.22 C 422.36 339.51 423.56 334.71 425.30 330.28 C 427.04 326.23 428.82 322.19 430.27 318.03 C 431.58 314.11 432.24 309.14 429.34 305.76 C 427.23 304.30 424.62 303.82 422.39 302.58 C 421.97 300.42 421.98 298.20 421.87 296.01 C 429.24 295.34 436.62 296.30 444.00 295.95 C 450.33 295.69 456.67 295.98 463.00 296.05 C 462.66 298.24 462.92 300.66 461.85 302.66 C 460.42 303.65 458.80 304.33 457.25 305.11 C 457.15 311.41 460.12 317.06 462.16 322.86 C 464.65 329.41 466.89 336.08 470.00 342.38 C 474.99 334.93 476.62 325.98 479.91 317.78 C 481.33 313.91 483.12 309.50 481.43 305.44 C 479.15 303.22 475.74 302.69 473.42 300.52 C 473.18 298.60 473.36 296.66 473.44 294.75 C 486.62 294.74 499.81 294.33 512.99 294.98 C 522.29 295.11 531.60 295.14 540.87 294.43 C 543.94 294.47 543.82 298.23 543.69 300.44 C 542.50 315.61 543.25 330.84 542.95 346.04 C 542.81 352.16 543.87 358.56 547.26 363.76 C 548.82 366.31 552.11 366.97 554.88 366.55 C 559.41 365.81 564.07 363.56 566.34 359.38 C 568.20 356.24 568.24 352.48 568.36 348.95 C 568.49 338.27 567.97 327.60 568.48 316.93 C 568.45 313.21 568.94 309.23 567.37 305.75 C 565.42 303.17 561.79 303.18 559.06 301.89 C 556.25 301.22 556.23 297.55 557.51 295.53 C 565.29 294.31 573.23 295.31 581.08 295.04 C 585.90 295.32 590.83 294.12 595.58 295.24 C 596.17 297.96 596.18 300.77 596.19 303.55 C 595.31 319.38 595.95 335.24 595.74 351.08 C 595.85 355.54 595.19 360.47 597.74 364.42 C 600.91 365.45 604.55 363.60 607.53 365.47 C 608.43 367.49 609.85 370.81 607.43 372.32 C 599.17 373.46 591.39 376.72 583.21 378.29 C 579.54 379.36 575.71 380.03 571.92 379.20 C 570.95 375.88 570.07 372.54 569.47 369.14 C 565.17 373.25 560.09 376.71 554.30 378.32 C 549.37 379.98 544.09 379.80 538.97 379.63 C 535.25 379.61 531.63 378.25 528.57 376.20 C 524.66 371.41 520.44 366.62 518.30 360.73 C 516.09 354.73 516.47 348.24 516.24 341.96 C 515.84 330.98 516.70 319.96 515.96 309.00 C 515.86 305.88 513.35 303.24 510.32 302.75 C 506.97 302.22 503.49 302.62 500.25 303.54 C 497.24 304.42 496.43 307.75 495.62 310.37 L 495.53 310.63 C 494.23 311.50 493.69 313.03 493.48 314.51 C 486.30 333.25 478.19 351.64 470.42 370.15 C 469.07 373.33 468.39 377.29 465.25 379.27 C 463.39 380.07 460.63 380.70 459.30 378.70 C 456.28 374.54 454.94 369.50 453.14 364.76 C 447.22 352.88 444.47 339.59 437.59 328.18 C 433.64 335.62 430.95 343.66 426.98 351.09 C 424.08 358.59 421.03 366.03 417.86 373.41 C 416.31 376.23 413.93 379.86 410.15 378.95 C 407.66 377.71 406.52 374.97 405.39 372.60 C 399.18 357.77 393.63 342.70 387.02 328.05 C 383.98 321.54 381.91 314.63 378.71 308.21 C 377.54 305.91 375.86 303.26 373.00 303.09 C 370.89 304.27 369.21 306.14 366.95 307.03 C 360.22 308.43 353.00 305.55 346.52 308.43 C 345.30 313.83 345.77 319.42 345.45 324.91 C 344.86 334.18 345.20 343.48 345.64 352.75 C 346.09 357.62 347.53 363.30 352.08 365.91 C 357.78 368.25 363.73 364.36 369.60 365.82 L 369.35 366.75 C 369.05 372.40 363.39 374.40 359.32 376.96 L 359.25 376.99 C 350.62 378.95 341.54 380.68 332.81 378.32 C 326.78 376.12 322.19 371.30 318.91 365.92 L 318.72 365.64 C 319.14 352.10 318.66 338.54 319.25 324.99 C 319.53 319.23 319.06 313.48 318.82 307.72 C 314.79 307.37 310.35 308.15 306.66 306.27 C 304.42 304.67 306.08 301.96 307.82 300.79 C 312.61 297.07 318.52 294.67 322.09 289.53 L 322.27 289.32 L 322.39 289.24 C 329.15 284.89 334.64 278.97 340.15 273.20 M 599.05 371.20 C 598.59 372.61 599.07 373.07 600.48 372.61 C 600.92 371.20 600.45 370.73 599.05 371.20 Z" />
<path fill="#c3201d" opacity="1.00" d=" M 193.42 296.22 C 198.59 292.83 204.57 289.20 210.99 291.37 C 215.62 291.87 218.64 296.57 218.71 300.96 C 219.90 308.44 212.25 315.28 205.02 314.55 C 200.48 314.88 196.31 310.62 191.80 312.75 C 188.33 316.14 186.79 321.30 186.87 326.09 C 186.85 337.73 186.83 349.37 186.85 361.01 C 187.03 363.18 186.73 365.79 188.37 367.51 C 192.18 368.98 196.37 367.64 200.25 368.59 C 203.22 370.62 201.48 374.59 201.60 377.54 C 194.06 378.17 186.53 377.08 178.99 377.31 C 168.20 376.09 157.39 378.84 146.59 377.39 C 146.48 374.51 146.49 371.64 146.63 368.76 C 150.17 368.56 153.77 368.95 157.27 368.26 C 159.01 366.66 158.90 364.11 159.02 361.95 C 159.07 350.32 158.98 338.69 159.01 327.07 C 158.90 322.80 158.95 317.72 155.08 314.96 C 152.30 312.43 146.48 311.74 146.88 306.96 C 148.65 304.60 151.35 303.21 154.02 302.14 C 159.71 299.31 165.95 297.75 171.42 294.48 C 174.91 292.66 179.61 291.06 183.01 293.88 C 183.21 297.47 183.04 301.15 184.02 304.66 C 184.17 305.26 184.47 306.45 184.62 307.05 C 186.08 305.31 187.54 303.58 188.89 301.76 C 190.42 299.93 192.11 298.23 193.42 296.22 Z" />
<path fill="#c3201d" opacity="1.00" d=" M 649.22 307.03 C 654.11 300.89 658.97 293.74 666.85 291.30 C 671.05 290.81 676.63 289.44 679.50 293.50 C 683.37 296.32 684.69 301.61 683.18 306.04 C 681.64 309.96 677.70 311.72 674.60 314.17 C 670.21 314.69 665.72 314.13 661.64 312.43 C 659.64 311.62 656.65 311.24 655.39 313.41 C 652.99 317.14 651.48 321.52 651.54 326.00 C 651.50 337.65 651.57 349.30 651.55 360.95 C 651.53 363.46 651.74 366.46 654.04 368.01 C 657.96 368.76 661.99 368.35 665.97 368.65 C 666.55 371.50 666.59 374.41 666.40 377.31 C 662.94 377.94 659.45 377.63 655.98 377.48 C 654.60 376.48 653.42 375.17 651.82 374.56 C 650.33 374.57 648.88 374.92 647.43 375.12 C 644.20 374.05 641.34 376.07 638.51 377.28 C 630.09 378.06 621.66 376.94 613.25 376.57 C 610.67 375.60 610.44 370.97 612.18 369.17 C 615.82 368.77 619.58 368.90 623.00 367.31 C 624.04 354.91 623.60 342.45 623.73 330.02 C 623.63 326.13 624.03 322.06 622.52 318.39 C 620.42 314.51 616.25 312.63 612.80 310.22 C 610.74 308.96 611.58 306.46 611.98 304.58 C 618.19 302.25 624.23 299.48 630.45 297.18 C 634.44 295.19 638.49 293.09 642.91 292.26 C 645.21 291.47 647.60 293.55 647.72 295.82 C 648.16 299.56 648.54 303.31 649.22 307.03 Z" />
<path fill="#c3201d" opacity="1.00" d=" M 1066.44 295.32 C 1071.51 292.20 1077.71 289.12 1083.73 291.28 C 1086.90 293.64 1090.55 296.61 1090.22 301.03 C 1091.45 310.38 1079.92 316.26 1072.07 313.15 C 1068.91 312.56 1065.29 310.08 1062.25 312.13 C 1056.57 318.99 1057.29 328.56 1057.51 336.90 C 1056.98 345.30 1057.41 353.70 1057.44 362.10 C 1057.49 364.38 1059.00 366.24 1060.03 368.18 C 1064.12 368.51 1068.37 368.34 1072.27 369.83 C 1072.12 371.94 1071.70 374.03 1071.53 376.14 C 1064.60 378.43 1057.19 376.60 1050.06 376.82 C 1045.16 377.07 1040.26 376.85 1035.39 376.49 C 1029.66 376.37 1023.95 377.20 1018.23 376.59 C 1018.03 374.19 1017.09 371.61 1018.14 369.29 C 1021.41 368.35 1024.88 368.96 1028.19 368.26 C 1029.74 367.20 1029.93 365.17 1030.28 363.48 C 1031.58 353.34 1030.70 343.13 1030.83 332.95 C 1030.14 327.79 1031.52 322.10 1028.66 317.43 C 1026.45 313.49 1021.69 312.31 1018.70 309.20 C 1017.12 306.57 1019.79 303.98 1022.20 303.25 C 1031.21 299.68 1040.08 295.75 1049.01 291.96 C 1050.79 291.12 1052.84 292.68 1053.28 294.44 C 1054.36 298.55 1054.93 302.78 1055.80 306.94 C 1059.24 302.98 1061.77 298.05 1066.44 295.32 Z" />
<path fill="#c3201d" opacity="1.00" d=" M 1101.56 291.53 C 1103.01 291.21 1104.53 291.18 1106.03 291.39 C 1119.37 294.87 1133.31 293.76 1146.96 294.03 C 1154.34 294.23 1161.75 293.56 1169.13 294.22 C 1171.58 294.22 1174.17 297.02 1172.38 299.35 C 1160.80 317.39 1149.00 335.29 1137.14 353.15 C 1134.37 358.03 1130.58 362.29 1128.43 367.51 C 1133.63 367.93 1138.87 367.82 1144.09 367.74 C 1147.05 367.71 1150.18 367.03 1152.12 364.58 C 1152.51 364.52 1153.29 364.38 1153.67 364.31 C 1155.35 364.02 1157.06 363.76 1158.76 363.50 C 1159.18 362.28 1159.60 361.05 1160.06 359.83 C 1165.08 356.55 1168.60 351.56 1172.93 347.50 C 1175.08 347.54 1178.62 348.01 1178.14 350.99 C 1177.81 356.02 1174.56 360.17 1172.48 364.59 C 1169.77 369.15 1168.67 374.76 1164.94 378.63 C 1157.67 377.89 1150.34 378.22 1143.09 377.41 C 1126.69 376.83 1110.23 377.93 1093.87 376.61 C 1093.95 374.91 1093.61 373.07 1094.61 371.56 C 1097.22 367.20 1099.98 362.92 1102.49 358.50 C 1103.84 357.08 1104.72 355.32 1105.38 353.50 C 1109.75 348.34 1112.91 342.25 1116.72 336.66 C 1121.38 330.21 1125.20 323.22 1129.41 316.49 C 1132.78 312.58 1135.61 308.22 1137.70 303.50 C 1129.85 303.46 1121.08 301.57 1114.05 306.04 C 1108.77 310.03 1104.25 314.94 1100.23 320.17 C 1098.95 321.76 1097.66 323.46 1095.68 324.18 C 1094.40 322.84 1092.61 322.41 1090.90 322.01 C 1090.60 317.73 1092.93 314.05 1094.16 310.10 C 1096.96 304.06 1099.38 297.82 1101.56 291.53 Z" />
<path fill="#c3201d" opacity="1.00" d=" M 243.45 295.75 C 255.90 292.10 269.62 289.83 282.18 294.23 C 282.68 294.95 283.19 295.68 283.71 296.41 C 284.25 296.55 285.34 296.84 285.89 296.98 C 287.36 299.21 289.25 301.26 290.00 303.89 C 292.11 310.05 290.78 316.63 291.35 322.98 C 292.14 331.97 291.07 341.03 292.15 350.00 C 292.64 354.59 291.66 359.39 293.18 363.83 C 297.57 366.79 300.36 359.66 304.60 361.59 C 306.24 361.93 307.77 363.10 307.50 364.97 C 305.92 368.88 303.75 372.78 300.19 375.22 C 296.84 377.43 293.27 380.04 289.03 379.71 C 284.08 379.63 278.37 380.30 274.46 376.57 C 271.58 374.66 270.10 371.00 266.97 369.59 C 260.00 374.54 252.16 378.73 243.50 379.50 C 241.67 379.55 239.83 379.55 238.00 379.56 C 238.08 378.99 238.24 377.86 238.33 377.29 C 236.66 376.60 235.01 375.92 233.35 375.24 C 233.58 376.38 233.82 377.52 234.05 378.67 C 232.60 378.04 231.16 377.41 229.73 376.75 C 226.65 375.22 225.31 371.81 224.26 368.75 C 222.62 362.48 223.67 355.92 225.46 349.80 C 229.06 346.28 231.89 341.92 236.18 339.13 C 244.71 334.62 253.65 330.87 262.03 326.04 C 265.56 324.52 264.18 320.03 264.47 317.01 C 264.22 312.47 265.46 305.95 260.10 303.92 C 255.03 302.68 248.19 302.21 244.73 306.97 C 243.72 312.64 246.85 319.65 241.89 324.07 C 237.08 329.13 226.67 329.94 222.63 323.53 C 221.76 320.26 222.01 316.73 222.60 313.42 C 223.84 311.09 225.46 308.99 226.74 306.69 C 231.96 303.52 236.40 298.83 242.45 297.28 C 242.70 296.89 243.20 296.13 243.45 295.75 M 249.72 351.03 C 249.41 355.73 249.27 361.53 253.25 364.83 C 257.99 367.86 265.04 363.59 264.47 358.00 C 264.43 350.52 264.62 343.03 264.29 335.55 C 257.55 338.14 250.21 343.12 249.72 351.03 Z" />
<path fill="#c3201d" opacity="1.00" d=" M 711.47 292.68 C 716.94 291.42 722.57 291.92 728.10 292.37 C 733.20 292.87 738.43 294.22 742.60 297.34 C 744.71 298.81 744.50 301.67 744.96 303.92 C 745.30 307.84 746.83 311.64 746.55 315.61 C 744.85 317.79 741.24 318.98 739.00 316.94 C 732.59 311.75 728.52 302.95 719.81 301.21 C 714.37 300.47 706.62 303.55 706.81 310.00 C 706.74 312.40 707.15 315.24 709.40 316.62 C 716.07 321.97 725.06 322.09 732.72 325.24 C 741.15 328.40 748.29 336.00 749.50 345.11 C 750.14 352.50 748.94 360.39 744.31 366.40 C 739.02 374.08 729.87 377.87 720.94 379.22 C 711.12 380.08 700.66 379.31 692.02 374.14 C 690.08 373.14 689.97 370.72 689.58 368.85 C 688.86 363.58 688.08 358.31 687.61 353.02 C 687.55 349.40 693.30 347.98 695.15 350.88 C 700.39 356.68 702.96 365.11 710.31 368.82 C 715.55 371.78 723.69 371.94 727.40 366.51 C 731.03 361.68 729.02 354.01 723.80 351.18 C 718.16 348.42 712.04 346.93 706.13 344.91 C 698.60 341.84 690.70 336.63 688.70 328.22 C 686.99 323.20 688.15 317.90 688.81 312.81 C 690.95 302.01 701.43 295.16 711.47 292.68 Z" />
<path fill="#c3201d" opacity="1.00" d=" M 961.14 294.16 C 971.54 290.86 983.19 290.20 993.33 294.75 C 1000.34 298.38 1005.73 304.73 1008.60 312.04 C 1010.09 317.06 1012.36 322.39 1010.56 327.65 C 1008.92 328.70 1006.91 328.75 1005.04 328.81 C 990.64 329.27 976.23 328.92 961.83 329.21 C 961.64 334.85 961.12 340.68 962.83 346.16 C 963.99 349.14 965.39 352.09 967.33 354.66 C 975.14 362.73 988.16 364.28 998.01 359.18 C 1002.19 357.84 1004.05 353.66 1007.04 350.84 C 1009.11 351.32 1011.00 352.35 1012.94 353.23 C 1013.72 357.54 1010.93 361.16 1008.57 364.45 C 1006.00 367.80 1002.75 370.54 999.19 372.76 C 998.73 372.34 997.83 371.49 997.38 371.07 C 996.28 372.94 995.63 375.43 993.32 376.16 C 989.08 377.88 984.56 379.33 979.94 379.18 C 977.38 379.70 974.76 379.70 972.22 379.12 C 966.36 379.55 960.79 377.40 955.33 375.61 C 948.35 373.14 944.19 366.60 939.94 360.97 C 937.65 356.49 935.17 351.94 934.61 346.86 C 933.23 335.85 933.73 324.12 938.99 314.12 C 943.85 305.31 950.96 296.69 961.14 294.16 M 968.37 303.42 C 963.82 307.24 961.87 313.64 962.28 319.44 C 969.39 319.79 976.64 320.20 983.65 318.71 C 983.68 313.20 983.39 306.86 979.28 302.72 C 975.91 301.00 971.59 301.62 968.37 303.42 Z" />
</g>
<g id="#b8ab9def">
<path fill="#b8ab9d" opacity="0.94" d=" M 188.93 299.96 C 188.92 300.41 188.90 301.31 188.89 301.76 C 187.54 303.58 186.08 305.31 184.62 307.05 C 184.47 306.45 184.17 305.26 184.02 304.66 C 184.01 303.55 183.99 301.35 183.97 300.24 C 184.43 300.98 185.35 302.46 185.81 303.20 C 186.84 302.10 187.87 301.02 188.93 299.96 Z" />
<path fill="#b8ab9d" opacity="0.94" d=" M 864.17 312.13 C 867.72 306.41 875.41 302.74 881.77 306.13 C 887.20 309.22 887.43 316.24 888.12 321.74 C 887.92 328.54 888.47 335.34 888.25 342.14 C 887.85 349.12 888.06 356.11 887.72 363.09 C 887.72 364.89 886.72 366.43 885.73 367.84 C 884.44 367.91 883.25 367.80 882.14 367.51 C 883.55 366.86 885.73 366.87 886.03 364.96 C 887.42 359.22 885.62 353.30 886.79 347.53 C 886.62 335.51 888.08 323.19 884.69 311.48 C 882.19 307.43 876.63 305.11 872.14 307.21 C 868.95 309.25 866.37 312.14 864.26 315.25 C 863.33 317.33 864.08 320.09 862.29 321.80 C 862.55 318.55 862.15 314.93 864.17 312.13 Z" />
<path fill="#b8ab9d" opacity="0.94" d=" M 709.47 407.70 C 714.38 404.73 722.16 409.15 720.18 415.17 C 719.74 422.16 707.75 422.48 706.35 415.88 C 705.27 412.88 706.19 408.85 709.47 407.70 M 708.14 411.08 C 706.63 413.97 708.54 416.76 710.14 419.09 C 713.64 419.12 719.21 418.88 718.82 413.97 C 719.60 408.07 710.62 406.49 708.14 411.08 Z" />
<path fill="#b8ab9d" opacity="0.94" d=" M 249.33 441.49 C 251.48 441.07 254.63 440.73 255.76 443.13 C 257.25 446.36 257.19 450.38 255.30 453.44 C 255.49 449.90 256.96 445.40 253.92 442.63 C 251.60 441.38 248.72 442.28 246.89 444.01 C 239.34 450.94 234.13 460.35 232.17 470.42 C 231.86 472.18 231.80 474.01 232.29 475.75 C 235.45 476.89 238.04 474.33 240.39 472.64 C 239.62 475.35 236.93 476.52 234.50 477.35 C 233.16 477.85 231.37 477.70 230.69 476.26 C 229.96 471.71 231.72 467.26 233.33 463.09 C 235.58 457.74 237.60 452.02 241.83 447.85 C 244.17 445.58 246.25 442.78 249.33 441.49 Z" />
<path fill="#b8ab9d" opacity="0.94" d=" M 695.36 453.13 C 697.73 450.06 700.46 447.08 704.38 446.07 C 703.57 450.18 702.27 454.16 701.17 458.20 C 700.96 458.31 700.53 458.55 700.31 458.66 C 700.45 455.50 701.58 452.47 701.90 449.32 C 699.65 450.48 697.66 452.08 695.36 453.13 Z" />
</g>
<g id="#1f8952ff">
<path fill="#1f8952" opacity="1.00" d=" M 466.45 408.71 C 470.08 406.62 475.82 409.50 474.85 414.02 C 474.65 420.16 463.18 420.50 463.54 413.96 C 463.11 411.72 464.18 409.39 466.45 408.71 Z" />
<path fill="#1f8952" opacity="1.00" d=" M 494.04 409.91 C 497.96 408.91 502.06 409.46 506.05 409.43 C 507.58 409.60 509.50 409.21 510.56 410.65 C 506.58 422.68 500.61 434.01 496.90 446.15 C 501.13 443.24 504.92 439.31 510.12 438.23 C 512.98 437.52 517.08 437.24 518.66 440.35 C 521.16 444.79 518.34 449.91 515.24 453.22 C 510.68 457.44 505.19 460.46 500.17 464.07 C 502.67 468.73 505.05 473.54 508.32 477.71 C 511.15 480.70 515.24 477.89 518.50 477.34 C 517.52 484.08 508.32 486.14 503.16 482.90 C 498.35 478.89 497.08 472.35 493.67 467.34 C 492.70 465.80 490.72 465.95 489.18 465.57 C 486.11 470.64 484.32 476.33 481.81 481.66 C 480.47 484.19 477.13 483.01 474.86 483.21 C 475.15 478.01 477.50 473.29 479.49 468.58 C 483.85 458.82 487.44 448.74 491.61 438.90 C 494.01 431.44 497.96 424.58 500.13 417.04 C 500.69 413.31 495.86 413.75 493.57 412.80 C 493.69 412.08 493.92 410.63 494.04 409.91 M 505.37 444.55 C 498.67 448.38 492.23 454.09 490.44 461.91 C 499.55 462.02 509.55 456.24 511.58 446.95 C 511.97 443.36 507.63 443.10 505.37 444.55 Z" />
<path fill="#1f8952" opacity="1.00" d=" M 708.14 411.08 C 710.62 406.49 719.60 408.07 718.82 413.97 C 719.21 418.88 713.64 419.12 710.14 419.09 C 708.54 416.76 706.63 413.97 708.14 411.08 Z" />
<path fill="#1f8952" opacity="1.00" d=" M 388.38 409.98 C 398.34 409.63 408.32 409.75 418.29 409.88 C 418.26 410.71 418.21 412.37 418.18 413.20 C 415.56 413.74 412.87 413.84 410.24 414.32 C 406.99 416.78 407.07 421.17 406.44 424.83 C 405.82 430.58 404.53 436.23 403.47 441.92 C 402.80 447.32 402.52 452.79 401.29 458.12 C 400.76 460.55 400.92 463.05 401.00 465.51 C 410.65 454.53 418.65 442.24 427.72 430.79 C 430.41 425.93 435.55 422.50 437.04 417.04 C 437.83 413.35 433.62 414.05 431.31 413.44 C 431.39 412.13 431.48 410.83 431.59 409.53 C 439.38 409.83 447.22 409.22 454.97 410.09 C 456.70 410.42 456.00 412.12 455.99 413.37 C 452.30 414.07 448.14 414.43 445.40 417.34 C 439.33 423.38 434.73 430.68 429.21 437.21 C 422.70 445.97 415.45 454.17 409.14 463.09 C 403.50 469.87 398.63 477.27 392.66 483.76 C 391.58 485.03 389.77 484.58 388.32 484.83 C 387.81 477.80 389.45 470.87 390.22 463.92 C 391.96 458.04 391.67 451.83 392.82 445.84 C 394.62 437.96 395.11 429.88 396.44 421.92 C 396.53 419.58 397.38 416.31 394.96 414.87 C 392.94 413.75 390.53 413.83 388.31 413.46 C 388.33 412.29 388.35 411.13 388.38 409.98 Z" />
<path fill="#1f8952" opacity="1.00" d=" M 680.07 409.96 C 685.01 409.72 689.96 409.74 694.90 409.96 C 695.09 415.79 691.72 420.74 689.87 426.04 C 686.59 434.90 682.59 443.47 679.48 452.40 C 676.73 460.44 672.37 467.99 670.99 476.46 C 672.07 476.44 673.15 476.42 674.24 476.41 C 676.00 474.59 677.64 471.80 680.61 472.30 C 680.79 472.70 681.16 473.51 681.35 473.92 C 676.73 479.58 669.86 485.63 661.98 484.13 C 660.79 483.12 661.07 481.30 661.25 479.95 C 663.21 471.22 667.53 463.30 670.51 454.92 C 673.85 445.51 678.43 436.56 681.19 426.96 C 682.85 422.86 685.52 418.92 684.74 414.25 C 683.00 413.96 681.26 413.71 679.52 413.50 C 679.66 412.61 679.94 410.85 680.07 409.96 Z" />
<path fill="#1f8952" opacity="1.00" d=" M 1001.17 410.24 C 1006.71 409.93 1012.28 409.82 1017.83 410.29 C 1017.66 411.67 1017.67 413.09 1017.26 414.43 C 1015.01 419.92 1012.62 425.35 1010.51 430.90 C 1008.35 436.05 1005.75 441.09 1004.61 446.60 C 1009.83 441.89 1016.19 437.40 1023.63 438.37 C 1027.88 441.11 1028.03 447.35 1024.90 451.00 C 1020.37 456.94 1013.90 461.06 1007.34 464.44 C 1008.77 467.57 1010.89 470.32 1012.49 473.37 C 1013.97 476.10 1015.76 479.13 1018.91 480.14 C 1021.43 479.89 1023.43 478.06 1025.74 477.13 C 1026.89 481.46 1022.38 483.72 1018.92 484.65 C 1015.69 485.03 1011.61 485.65 1009.45 482.60 C 1005.58 477.80 1003.92 471.55 999.89 466.82 C 998.62 466.26 997.34 466.24 996.05 466.76 C 992.82 471.99 991.79 478.26 988.67 483.53 C 986.51 484.17 984.23 483.79 982.04 483.68 C 982.44 481.07 983.05 478.49 984.16 476.09 C 988.45 466.28 992.23 456.26 995.97 446.23 C 999.34 440.14 1001.25 433.42 1004.18 427.13 C 1005.81 423.39 1007.56 419.59 1007.84 415.47 C 1005.58 414.68 1003.23 414.17 1000.88 413.78 C 1000.96 412.60 1001.05 411.42 1001.17 410.24 M 1008.12 448.19 C 1003.38 451.86 998.29 456.49 997.93 462.90 C 1003.20 462.87 1008.19 460.35 1012.45 457.44 C 1015.85 454.38 1020.57 449.74 1018.06 444.80 C 1014.37 443.79 1011.03 446.28 1008.12 448.19 Z" />
<path fill="#1f8952" opacity="1.00" d=" M 547.30 427.24 C 549.60 425.22 552.86 424.86 555.74 424.14 C 554.62 429.90 550.32 434.43 549.58 440.30 C 552.68 440.57 555.90 440.16 558.90 441.14 C 559.65 442.36 559.24 444.18 557.92 444.82 C 554.47 445.46 550.89 444.77 547.47 445.60 C 546.10 445.88 545.85 447.39 545.33 448.46 C 543.52 453.47 540.45 457.91 538.70 462.94 C 537.08 467.74 534.30 472.21 533.96 477.37 C 538.43 477.30 541.57 473.88 544.99 471.52 C 546.99 471.13 547.78 472.00 547.36 474.12 C 545.84 476.68 543.02 478.03 540.72 479.78 C 536.21 483.12 530.44 485.16 524.83 483.88 C 523.81 476.36 528.75 469.84 531.19 463.05 C 533.14 457.06 536.51 451.61 537.93 445.43 C 535.69 445.22 533.46 445.04 531.24 444.85 C 531.44 443.55 531.71 442.26 532.04 440.98 C 534.93 440.25 537.96 440.46 540.92 440.13 C 542.89 435.77 544.60 431.22 547.30 427.24 Z" />
<path fill="#1f8952" opacity="1.00" d=" M 1054.25 428.36 C 1056.43 426.06 1059.75 425.61 1062.76 425.37 C 1061.50 430.72 1058.25 435.32 1057.00 440.68 C 1060.13 440.97 1063.29 441.05 1066.45 441.15 C 1066.66 442.72 1066.77 445.24 1064.62 445.37 C 1061.15 446.12 1056.77 444.59 1053.94 447.02 C 1049.63 454.69 1046.87 463.14 1043.04 471.06 C 1041.86 473.23 1041.79 475.71 1041.98 478.12 C 1046.74 477.77 1049.53 472.90 1054.15 472.57 C 1054.81 475.58 1051.94 477.17 1050.06 478.88 C 1045.71 482.73 1039.85 484.95 1034.07 484.80 C 1031.22 484.62 1030.96 481.12 1031.90 479.06 C 1036.04 467.87 1042.64 457.60 1045.42 445.93 C 1043.32 445.74 1041.23 445.58 1039.14 445.45 C 1039.10 444.24 1039.09 443.04 1039.09 441.85 C 1042.10 441.15 1045.30 441.25 1048.26 440.30 C 1051.10 436.78 1051.84 432.13 1054.25 428.36 Z" />
<path fill="#1f8952" opacity="1.00" d=" M 244.82 439.84 C 249.47 436.46 256.39 435.41 261.02 439.43 C 263.29 437.73 266.05 437.36 268.82 437.50 C 265.12 450.80 258.34 463.20 256.16 476.90 C 259.72 475.44 261.50 471.27 265.45 470.70 C 265.11 472.39 265.92 474.82 264.03 475.80 C 258.93 479.27 254.26 485.40 247.29 483.61 C 246.51 478.87 248.54 474.42 249.42 469.86 C 244.02 474.92 238.96 480.78 231.90 483.55 C 228.89 484.39 224.35 484.35 223.02 480.90 C 220.96 475.52 222.83 469.69 224.68 464.54 C 228.85 454.62 235.95 445.93 244.82 439.84 M 249.33 441.49 C 246.25 442.78 244.17 445.58 241.83 447.85 C 237.60 452.02 235.58 457.74 233.33 463.09 C 231.72 467.26 229.96 471.71 230.69 476.26 C 231.37 477.70 233.16 477.85 234.50 477.35 C 236.93 476.52 239.62 475.35 240.39 472.64 C 243.64 470.20 246.27 467.05 248.79 463.89 C 251.12 460.53 254.15 457.47 255.30 453.44 C 257.19 450.38 257.25 446.36 255.76 443.13 C 254.63 440.73 251.48 441.07 249.33 441.49 Z" />
<path fill="#1f8952" opacity="1.00" d=" M 289.37 438.44 C 291.62 436.96 294.32 437.42 296.77 437.99 C 298.04 444.47 293.60 449.79 291.76 455.65 C 294.74 453.27 297.81 450.89 299.73 447.53 C 303.39 443.53 307.12 438.57 312.94 437.96 C 315.48 437.44 319.89 437.62 320.16 440.99 C 320.75 445.68 318.74 450.14 317.78 454.64 C 322.70 448.96 327.23 442.56 334.03 438.96 C 337.09 437.54 340.87 437.40 343.83 439.15 C 345.45 441.54 345.47 444.77 344.44 447.41 C 342.54 452.19 340.74 457.00 338.78 461.75 C 337.56 466.49 334.83 470.81 334.63 475.79 C 338.74 474.26 340.89 469.91 345.09 468.51 C 345.19 469.32 345.40 470.96 345.51 471.77 C 341.02 476.22 336.51 480.94 330.64 483.56 C 328.89 484.13 327.00 483.73 325.20 483.71 C 325.32 469.64 335.49 458.31 337.11 444.59 C 334.98 444.56 332.61 444.28 331.07 446.09 C 324.21 452.26 318.60 459.68 313.21 467.13 C 309.75 471.80 308.91 477.79 305.72 482.60 C 303.64 483.12 301.47 482.89 299.36 482.90 C 300.59 474.24 305.46 466.70 308.49 458.61 C 310.29 454.00 312.18 449.16 311.49 444.12 C 308.27 444.92 305.30 446.57 303.05 449.02 C 295.44 456.98 287.98 465.54 284.00 475.97 C 283.10 478.06 282.47 480.33 281.10 482.19 C 279.18 483.36 276.80 482.74 274.68 482.87 C 274.94 481.14 275.00 479.33 275.80 477.73 C 278.43 471.74 280.89 465.67 283.27 459.58 C 285.10 454.70 288.16 450.08 288.01 444.67 C 283.85 446.41 281.32 451.35 276.44 451.15 C 278.04 444.93 284.08 441.31 289.37 438.44 Z" />
<path fill="#1f8952" opacity="1.00" d=" M 450.59 447.54 C 455.03 443.12 460.16 437.43 467.00 438.00 C 469.68 437.96 469.24 441.35 468.83 443.14 C 467.04 449.72 464.34 456.03 462.24 462.52 C 459.95 467.24 457.83 472.21 457.84 477.56 C 462.01 475.81 464.62 471.48 469.25 470.64 C 468.83 472.24 468.81 474.15 467.48 475.36 C 462.85 480.37 456.46 484.97 449.25 483.78 C 448.70 477.12 451.54 470.99 453.97 464.98 C 456.11 458.81 458.95 452.78 459.62 446.21 C 455.84 447.43 453.45 450.83 450.00 452.55 C 447.21 452.52 449.53 448.69 450.59 447.54 Z" />
<path fill="#1f8952" opacity="1.00" d=" M 563.91 445.94 C 568.55 441.63 574.28 437.19 581.02 437.97 C 581.98 440.76 582.61 443.83 581.51 446.69 C 579.42 451.81 577.13 456.86 574.98 461.96 C 572.78 467.01 570.21 472.08 569.81 477.68 C 572.48 477.76 575.05 476.90 577.03 475.06 C 583.78 469.39 589.53 462.53 594.07 454.98 C 597.05 450.24 597.41 444.30 600.47 439.62 C 602.60 439.15 604.80 439.29 606.97 439.27 C 606.87 440.76 606.99 442.31 606.52 443.76 C 603.34 452.22 600.43 460.77 597.19 469.21 C 596.16 471.80 595.50 474.57 596.03 477.37 C 599.55 475.84 601.66 471.33 606.01 472.24 C 605.29 474.19 604.26 476.10 602.50 477.31 C 597.71 480.90 592.53 485.55 586.02 484.20 C 585.35 478.04 588.82 472.75 590.31 467.03 C 587.55 469.33 585.89 472.78 582.77 474.66 C 579.45 476.63 577.70 480.52 573.98 481.94 C 570.42 483.74 565.43 486.02 561.99 482.89 C 560.39 479.49 561.81 475.53 563.19 472.28 C 566.25 465.54 568.68 458.53 571.98 451.90 C 572.99 449.85 573.01 447.51 573.30 445.30 C 568.84 445.08 566.40 449.82 562.09 449.98 C 562.59 448.61 562.74 446.96 563.91 445.94 Z" />
<path fill="#1f8952" opacity="1.00" d=" M 628.50 444.56 C 631.97 441.99 635.42 438.80 639.94 438.40 C 643.65 437.83 647.37 438.67 650.84 439.98 C 651.52 439.34 652.21 438.70 652.90 438.07 C 654.46 438.06 656.03 438.08 657.60 438.10 C 656.22 445.16 652.85 451.59 650.60 458.38 C 648.96 464.63 645.90 470.50 645.22 476.99 C 648.96 475.64 651.18 471.56 655.44 471.45 C 654.59 476.24 649.94 478.57 646.49 481.33 C 643.76 483.48 639.79 485.56 636.43 483.77 C 635.35 479.12 637.93 474.82 638.48 470.30 C 634.66 474.26 630.52 477.88 626.16 481.23 C 623.02 483.59 618.94 485.11 614.99 484.41 C 610.00 481.92 611.44 475.64 611.65 471.15 C 614.36 460.81 620.94 451.93 628.50 444.56 M 638.52 442.66 C 636.20 443.31 633.71 444.22 632.41 446.40 C 629.70 450.34 626.51 454.03 624.69 458.50 C 622.66 463.52 619.83 468.51 620.04 474.11 C 620.14 475.31 619.85 477.00 621.29 477.55 C 623.84 478.16 626.50 477.02 628.23 475.14 C 632.32 470.90 636.83 466.96 639.92 461.88 C 642.29 458.19 645.54 454.58 645.55 449.93 C 645.69 447.54 645.92 444.64 643.90 442.92 C 642.35 441.70 640.25 442.24 638.52 442.66 Z" />
<path fill="#1f8952" opacity="1.00" d=" M 694.84 447.89 C 699.42 443.36 704.68 437.66 711.72 438.23 C 714.25 439.50 713.42 442.73 712.80 444.89 C 710.28 452.46 707.53 459.96 704.32 467.27 C 702.89 470.58 701.78 474.15 702.40 477.80 C 706.57 476.37 708.74 471.99 713.04 470.80 C 713.09 471.63 713.19 473.29 713.24 474.12 C 708.33 479.86 701.32 485.79 693.18 484.08 C 692.62 475.02 698.24 467.31 700.13 458.76 L 700.31 458.66 C 700.53 458.55 700.96 458.31 701.17 458.20 C 702.27 454.16 703.57 450.18 704.38 446.07 C 700.46 447.08 697.73 450.06 695.36 453.13 C 694.70 453.22 693.39 453.38 692.73 453.46 C 693.00 451.47 693.15 449.26 694.84 447.89 Z" />
<path fill="#1f8952" opacity="1.00" d=" M 738.92 441.95 C 742.56 438.95 747.44 438.15 752.01 437.97 C 754.41 439.00 756.92 441.04 756.77 443.93 C 757.22 448.17 754.33 451.75 751.55 454.59 C 746.12 459.76 738.64 461.75 731.42 462.79 C 729.18 466.44 728.79 471.06 729.80 475.16 C 730.66 478.49 734.61 479.36 737.53 478.41 C 740.05 477.49 742.90 476.82 744.50 474.47 C 745.67 472.83 747.58 472.17 749.42 471.56 C 748.65 477.16 743.52 480.45 738.93 482.85 C 734.70 485.22 729.05 485.88 724.82 483.19 C 721.17 480.78 720.99 475.81 721.23 471.90 C 722.69 460.03 729.71 449.34 738.92 441.95 M 740.51 445.50 C 736.71 448.90 733.75 453.43 732.39 458.36 C 738.32 458.23 744.38 455.86 747.86 450.89 C 748.88 448.88 748.45 446.55 748.51 444.39 C 745.83 444.12 742.67 443.43 740.51 445.50 Z" />
<path fill="#1f8952" opacity="1.00" d=" M 774.52 438.82 C 777.18 438.29 782.43 437.03 782.88 440.95 C 783.50 444.84 781.38 448.41 780.58 452.11 C 786.36 446.81 791.90 440.39 799.84 438.46 C 802.29 438.19 805.29 437.90 807.35 439.56 C 809.02 442.06 808.23 445.32 807.73 448.07 C 805.29 455.28 802.29 462.29 799.38 469.33 C 798.20 472.06 797.71 475.02 797.57 477.98 C 800.83 476.51 803.50 473.98 806.91 472.81 C 806.69 474.45 807.23 476.56 805.67 477.70 C 803.19 480.02 800.09 481.53 797.16 483.18 C 794.26 484.91 790.76 484.34 787.57 484.25 C 787.04 478.49 790.61 473.61 792.29 468.34 C 794.77 460.54 799.85 453.32 799.26 444.80 C 796.31 445.31 793.35 446.16 791.00 448.07 C 784.60 453.03 779.19 459.33 775.50 466.55 C 772.73 471.45 771.45 477.00 768.99 482.03 C 767.56 484.52 764.25 483.61 761.91 483.73 C 761.80 476.95 766.03 471.18 767.87 464.85 C 769.69 458.15 773.75 452.07 773.98 444.98 C 772.03 445.51 769.88 445.83 768.38 447.31 C 766.55 449.01 764.80 451.05 762.10 451.15 C 762.26 449.74 761.78 448.04 762.96 446.96 C 766.09 443.37 770.42 441.11 774.52 438.82 Z" />
<path fill="#1f8952" opacity="1.00" d=" M 822.13 447.16 C 826.40 442.97 831.40 437.92 837.89 438.40 C 840.78 438.53 839.76 442.15 839.88 444.09 C 839.97 447.79 836.26 450.82 836.87 454.31 C 841.60 449.22 846.08 443.68 852.02 439.93 C 855.21 438.01 860.16 437.23 863.04 439.97 C 865.21 445.21 861.56 450.49 860.77 455.67 C 866.56 449.80 871.14 442.11 879.11 438.94 C 881.83 438.06 885.87 437.44 887.43 440.54 C 889.77 443.91 887.54 447.96 886.63 451.44 C 884.05 457.89 881.74 464.45 878.83 470.76 C 877.94 472.54 877.96 474.57 877.79 476.51 C 881.27 475.19 883.61 472.29 886.06 469.65 C 886.88 469.60 888.51 469.49 889.32 469.43 C 888.68 473.70 884.94 476.24 882.01 478.98 C 878.33 482.28 873.86 485.10 868.70 484.69 C 868.37 481.16 868.79 477.59 870.31 474.36 C 872.83 466.55 876.88 459.34 879.35 451.51 C 879.98 449.32 879.87 447.03 879.86 444.79 C 876.71 444.93 874.05 446.68 872.01 448.97 C 865.73 455.75 859.41 462.63 854.71 470.66 C 852.72 474.87 850.91 479.17 849.22 483.51 C 847.11 483.62 845.01 483.69 842.92 483.73 C 842.46 479.45 845.10 475.97 846.35 472.11 C 847.76 468.37 849.94 464.95 851.07 461.09 C 852.63 455.88 855.63 450.96 855.23 445.33 C 853.64 445.58 851.88 445.48 850.56 446.52 C 842.87 451.82 837.58 459.65 832.04 466.99 C 828.65 471.71 827.69 477.70 824.23 482.38 C 822.83 484.36 820.05 483.39 818.02 483.69 C 818.68 476.42 822.93 470.27 825.48 463.62 C 827.25 457.43 830.88 451.86 831.67 445.38 C 827.15 446.69 824.89 452.24 819.89 452.03 C 820.17 450.22 820.62 448.36 822.13 447.16 Z" />
<path fill="#1f8952" opacity="1.00" d=" M 911.02 446.11 C 915.30 442.98 919.33 438.62 924.98 438.37 C 928.13 437.75 931.07 439.01 934.00 439.95 C 936.50 439.04 939.03 438.08 941.76 438.52 C 940.84 443.25 938.91 447.66 937.02 452.06 C 934.56 460.58 930.26 468.65 929.42 477.57 C 933.21 476.24 934.89 471.48 939.28 471.63 C 938.90 474.09 937.78 476.37 935.66 477.77 C 931.12 481.12 926.43 485.70 920.30 484.84 C 919.30 480.00 921.60 475.57 922.41 470.93 C 916.79 476.10 911.53 482.39 903.89 484.53 C 900.80 485.19 896.37 484.46 895.37 480.95 C 894.33 475.98 896.14 471.03 897.43 466.29 C 900.56 458.75 905.34 451.93 911.02 446.11 M 921.36 443.41 C 915.74 446.77 912.10 452.46 908.95 458.02 C 906.05 464.08 903.28 470.76 904.64 477.62 C 905.87 479.09 908.21 478.67 909.50 477.47 C 915.96 472.27 921.56 466.03 926.16 459.13 C 928.79 455.07 930.54 449.90 929.08 445.11 C 927.87 442.02 923.84 442.12 921.36 443.41 Z" />
<path fill="#1f8952" opacity="1.00" d=" M 965.19 451.74 C 970.05 447.23 972.83 439.38 980.15 438.41 C 984.76 437.34 987.86 444.42 984.16 447.22 C 980.80 449.93 976.22 444.96 973.11 448.05 C 968.97 452.67 965.79 458.04 962.19 463.07 C 959.01 469.69 956.70 476.70 954.41 483.67 C 952.34 483.75 950.29 483.80 948.24 483.78 C 947.82 478.76 950.79 474.51 952.10 469.87 C 954.40 461.74 957.60 453.78 958.34 445.29 C 953.39 444.90 951.45 450.35 947.01 451.34 C 946.23 447.21 950.11 445.05 952.66 442.65 C 955.83 439.29 961.35 436.83 965.64 439.36 C 967.40 443.32 965.30 447.64 965.19 451.74 Z" />
</g>
</svg>
