<?xml version="1.0" encoding="UTF-8" ?>
<!DOCTYPE svg PUBLIC "-//W3C//DTD SVG 1.1//EN" "http://www.w3.org/Graphics/SVG/1.1/DTD/svg11.dtd">
<svg width="900pt" height="76pt" viewBox="0 0 900 76" version="1.1" xmlns="http://www.w3.org/2000/svg">
<g id="#00925fff">
<path fill="#00925f" opacity="1.00" d=" M 177.98 0.00 L 180.42 0.00 C 181.10 1.01 181.79 2.03 182.48 3.05 C 183.77 3.58 185.09 4.06 186.32 4.75 C 187.36 6.43 186.26 8.45 186.11 10.22 C 187.17 11.16 188.22 12.11 189.26 13.06 C 186.67 16.10 183.63 18.81 181.65 22.32 C 185.51 19.25 188.91 15.53 193.37 13.29 C 199.27 9.85 206.55 8.53 213.05 11.01 C 214.36 10.25 215.65 9.42 217.05 8.81 C 219.34 8.55 221.32 10.45 223.63 10.32 C 225.83 10.38 228.27 9.60 230.27 10.87 C 233.13 12.62 235.65 14.89 238.56 16.59 C 239.75 15.23 240.87 13.79 242.21 12.56 C 243.76 12.65 245.27 13.08 246.79 13.42 C 246.23 15.02 246.15 16.87 245.13 18.28 C 243.35 19.71 240.91 19.77 238.79 20.40 C 243.72 24.97 248.91 30.37 255.90 31.32 C 260.43 32.01 264.23 29.13 267.20 26.10 C 267.83 28.57 268.44 31.45 266.57 33.57 C 264.18 37.20 259.28 37.33 255.52 36.18 C 247.00 33.55 240.68 26.95 234.25 21.14 C 234.85 26.93 234.20 34.68 227.92 37.15 C 225.28 38.49 223.33 35.79 221.63 34.24 C 222.41 33.20 223.20 32.16 223.99 31.12 C 221.10 28.79 221.53 25.21 221.96 21.92 C 220.36 22.26 218.76 22.73 217.11 22.79 C 215.38 21.59 214.07 19.91 212.63 18.41 C 212.44 19.84 212.25 21.26 212.05 22.69 C 208.46 20.63 205.28 17.70 201.03 17.06 C 203.93 20.24 208.19 23.23 208.30 27.97 C 208.73 32.78 200.61 34.18 198.89 29.88 C 197.30 27.34 200.46 25.29 201.44 23.17 C 198.42 20.99 194.92 19.37 191.10 19.73 C 192.12 21.28 193.15 22.84 194.18 24.39 C 188.82 24.18 183.46 24.44 178.10 24.31 C 175.94 20.16 172.44 17.00 169.85 13.18 C 170.57 12.20 171.40 11.31 172.21 10.40 C 171.62 8.94 171.00 7.48 170.55 5.97 C 171.83 4.96 173.28 4.21 174.71 3.42 C 175.77 2.26 176.83 1.08 177.98 0.00 Z" />
<path fill="#00925f" opacity="1.00" d=" M 250.31 0.00 L 251.69 0.00 C 251.93 0.56 252.42 1.69 252.67 2.25 C 252.07 3.68 251.47 5.11 250.87 6.53 C 260.27 9.57 270.14 10.86 279.98 11.33 C 285.23 11.55 290.64 11.44 295.63 9.59 C 299.73 8.06 302.82 4.84 306.03 1.99 C 307.52 3.40 309.31 4.62 310.33 6.45 C 311.76 9.67 310.52 13.65 307.98 15.96 C 305.92 17.34 303.25 16.56 300.94 16.65 C 299.88 18.00 299.21 19.84 297.63 20.67 C 295.64 21.49 294.35 19.38 293.00 18.34 C 291.73 19.45 290.49 20.63 289.02 21.47 C 287.18 20.96 285.62 19.81 284.05 18.79 C 282.71 19.50 281.42 20.30 280.00 20.82 C 278.01 20.53 276.67 18.78 275.12 17.66 C 273.32 17.51 271.51 17.37 269.71 17.28 C 281.46 23.33 294.21 28.66 307.64 28.64 C 310.28 25.76 313.46 23.31 317.12 21.91 C 318.40 21.36 319.50 21.65 320.40 22.77 C 319.12 25.31 317.31 27.52 315.64 29.80 C 326.99 30.87 339.85 31.48 349.62 24.59 C 346.30 24.37 342.43 25.58 339.53 23.45 C 334.39 18.85 336.86 8.22 344.12 7.45 C 348.63 6.33 352.99 8.28 356.50 10.98 C 358.17 7.43 360.09 3.63 363.76 1.77 C 369.31 -0.94 376.10 -0.28 381.50 2.49 C 390.31 7.08 396.12 15.39 403.27 21.99 C 403.04 16.58 402.55 10.64 405.91 6.00 C 409.33 0.37 417.37 -1.11 422.94 2.04 C 427.39 4.71 431.00 10.46 428.53 15.63 C 427.10 20.61 421.16 24.23 416.26 21.76 C 411.48 20.09 411.21 11.15 416.94 10.81 C 420.49 10.87 420.95 14.96 422.25 17.42 C 423.64 14.95 425.64 12.06 424.18 9.14 C 421.75 2.85 411.74 3.00 408.98 8.98 C 405.59 16.28 407.81 26.81 415.47 30.52 C 423.79 34.45 434.80 33.06 441.17 26.16 C 445.41 21.31 446.82 14.18 444.92 8.05 C 444.10 4.96 440.27 2.95 437.35 4.26 C 435.16 5.07 435.76 7.75 435.27 9.56 C 436.73 8.76 438.19 7.96 439.66 7.15 C 441.12 8.72 443.30 10.44 442.30 12.89 C 440.95 16.75 435.62 16.43 433.25 13.79 C 428.94 9.80 431.07 1.29 437.10 0.38 C 442.03 -1.00 446.36 2.43 449.21 6.08 C 452.19 2.23 456.87 -1.04 461.97 0.60 C 468.64 1.95 469.61 13.09 462.88 15.11 C 459.44 17.08 454.41 13.23 456.51 9.44 C 457.74 6.73 460.62 8.11 462.57 9.11 C 462.88 8.46 463.49 7.16 463.80 6.50 C 462.35 5.40 461.01 3.69 459.02 3.72 C 456.49 3.98 454.28 5.91 453.58 8.33 C 451.34 15.65 453.90 24.29 460.14 28.86 C 467.15 33.91 477.28 34.09 484.58 29.55 C 490.98 25.32 492.39 16.09 489.72 9.32 C 487.22 3.28 477.76 2.93 474.66 8.61 C 472.90 11.54 474.43 14.80 476.09 17.36 C 477.02 15.56 477.72 13.60 478.97 11.98 C 481.00 10.27 484.45 11.07 485.25 13.69 C 487.36 17.62 484.07 22.40 479.83 22.60 C 471.98 23.46 466.52 13.06 470.72 6.74 C 474.81 -0.70 486.69 -1.48 491.91 5.14 C 495.60 9.80 495.67 16.05 495.38 21.71 C 502.42 14.99 508.54 6.89 517.47 2.52 C 523.40 -0.43 531.12 -0.76 536.56 3.43 C 539.56 5.57 540.66 9.26 542.13 12.46 C 545.46 9.67 549.46 6.63 554.11 7.83 C 561.59 8.39 564.22 19.20 559.04 23.91 C 556.10 26.35 552.21 24.95 548.87 24.55 C 550.86 26.10 552.87 27.75 555.33 28.50 C 564.31 31.30 573.88 31.22 583.16 30.46 C 581.40 27.85 579.69 25.20 578.30 22.38 C 584.40 21.08 587.78 27.52 592.86 29.20 C 605.98 28.69 618.52 23.67 630.00 17.59 C 628.06 17.65 626.16 17.75 624.25 17.88 C 622.60 19.30 620.97 20.82 618.98 21.75 C 617.44 21.04 616.04 20.10 614.63 19.19 C 613.41 20.16 612.25 21.21 610.89 21.97 C 608.80 21.97 607.63 19.98 606.19 18.79 C 604.86 19.81 603.68 21.12 602.03 21.59 C 599.93 20.76 598.84 18.67 597.50 17.00 C 595.70 17.15 593.88 17.54 592.08 17.27 C 588.99 15.91 587.47 12.22 587.75 9.00 C 588.10 6.06 590.82 4.38 592.82 2.54 C 595.42 4.81 597.85 7.37 600.93 9.00 C 605.87 11.57 611.52 12.47 617.05 12.19 C 627.50 11.64 637.95 10.24 648.07 7.49 C 647.21 5.53 646.21 3.53 646.31 1.33 C 648.92 0.95 650.95 2.91 653.23 3.80 C 655.32 4.80 657.70 4.22 659.91 4.05 C 669.16 2.78 678.69 1.10 687.95 3.25 C 693.00 4.54 698.07 5.89 702.89 7.92 C 705.42 8.89 707.75 10.39 709.36 12.64 C 706.35 12.59 703.47 11.77 700.57 11.08 C 706.85 14.48 714.65 17.78 716.83 25.27 C 712.75 25.22 708.67 25.22 704.60 25.32 C 705.69 23.71 706.80 22.11 707.88 20.48 C 704.13 20.39 700.51 21.42 697.48 23.62 C 698.49 25.37 699.84 26.99 700.43 28.96 C 700.19 31.25 698.23 33.02 696.00 33.32 C 693.38 33.09 691.24 30.69 691.46 28.04 C 691.70 23.73 695.03 20.62 697.30 17.25 C 693.19 17.75 690.81 21.22 687.51 23.21 C 686.93 21.98 686.40 20.73 685.91 19.47 C 684.69 21.00 683.64 22.79 681.91 23.81 C 680.20 23.36 678.61 22.60 676.99 21.94 C 677.37 23.91 677.90 25.88 678.00 27.90 C 677.15 29.09 676.08 30.09 675.09 31.14 C 675.60 33.09 677.27 35.56 675.34 37.26 C 673.18 39.53 669.81 37.77 668.01 35.94 C 664.61 32.35 665.18 27.01 664.70 22.47 C 658.39 28.10 652.08 34.31 643.86 37.00 C 639.61 38.39 633.96 37.60 631.52 33.47 C 629.94 31.26 631.30 28.60 631.79 26.27 C 634.43 28.64 636.96 32.06 640.90 31.95 C 649.22 32.71 655.34 26.02 660.79 20.75 C 657.89 20.42 654.09 20.61 652.62 17.51 C 651.17 15.14 653.40 12.42 655.85 12.19 C 658.48 12.34 658.79 15.69 660.12 17.40 C 663.94 15.50 666.96 12.17 671.00 10.71 C 673.75 10.81 676.64 11.87 679.19 10.26 C 681.52 8.68 683.67 10.82 685.63 11.95 C 688.69 10.64 691.92 9.85 695.18 9.17 C 686.89 6.58 678.07 6.97 669.55 7.81 C 662.47 8.71 655.24 9.74 648.73 12.82 C 646.46 13.94 643.95 16.20 644.62 19.01 C 644.94 22.85 650.62 22.39 651.16 25.98 C 649.03 27.40 646.45 27.70 643.99 28.11 C 642.33 29.03 640.69 30.00 638.91 30.66 C 635.78 29.52 636.21 26.21 637.03 23.67 C 636.25 22.00 635.72 20.15 634.48 18.75 C 630.45 20.58 626.79 23.11 622.72 24.85 C 605.32 32.68 585.91 35.06 566.97 34.68 C 559.90 34.39 552.46 33.52 546.38 29.63 C 543.53 27.95 542.06 24.89 540.51 22.12 C 537.29 24.97 533.41 27.53 528.91 27.20 C 523.42 27.44 518.83 21.65 520.47 16.37 C 521.40 12.63 526.60 10.83 529.48 13.50 C 531.71 15.88 529.97 19.05 529.62 21.78 C 531.87 21.55 534.66 21.24 535.85 19.00 C 538.21 14.41 536.66 7.57 531.52 5.62 C 525.92 3.07 519.55 5.49 515.00 9.04 C 508.06 14.45 502.02 20.91 496.26 27.53 C 500.97 27.00 506.29 26.51 510.26 29.68 C 515.49 33.23 516.15 40.33 515.12 46.05 C 513.71 53.23 505.41 57.96 498.50 55.58 C 493.16 54.09 488.92 47.75 491.43 42.37 C 492.96 38.65 499.39 37.98 500.89 42.09 C 502.56 45.22 499.41 47.68 497.60 49.77 C 500.10 50.99 502.98 52.18 505.62 50.56 C 513.56 47.45 512.90 33.89 504.68 31.58 C 499.25 30.45 494.24 33.61 489.09 34.77 C 480.51 36.87 471.04 39.33 462.56 35.54 C 456.71 33.40 452.62 28.45 449.41 23.33 C 445.24 30.03 439.04 36.04 430.98 37.39 C 421.45 38.68 412.04 35.71 403.15 32.62 C 399.82 31.58 396.08 30.33 392.68 31.74 C 385.35 35.21 385.37 47.85 393.28 50.58 C 395.76 51.88 398.32 50.49 400.68 49.65 C 398.99 47.52 396.26 45.20 397.42 42.14 C 398.49 38.47 403.88 38.05 406.10 40.87 C 408.68 43.87 407.93 48.67 405.53 51.56 C 401.84 56.28 394.76 57.14 389.66 54.30 C 381.56 50.02 380.83 37.84 386.19 31.14 C 390.13 26.42 396.84 26.22 402.39 27.56 C 396.51 21.15 390.73 14.57 383.93 9.11 C 379.38 5.40 373.02 2.99 367.26 5.20 C 362.21 7.15 360.21 13.81 362.54 18.49 C 363.65 20.83 366.53 20.91 368.70 21.62 C 368.58 18.74 366.58 14.76 369.75 12.86 C 373.13 10.19 377.74 13.20 378.34 17.00 C 379.48 22.37 374.33 27.46 369.01 26.85 C 364.43 27.12 360.49 24.39 357.80 20.92 C 356.26 23.86 354.70 26.93 352.08 29.09 C 347.61 32.85 341.68 34.18 336.03 34.92 C 327.43 35.90 318.74 35.20 310.18 34.24 C 298.44 32.76 286.71 30.09 276.02 24.92 C 271.72 22.88 267.84 20.10 263.71 17.76 C 263.10 19.50 262.50 21.24 261.88 22.98 C 261.97 24.97 263.39 27.95 261.29 29.28 C 259.16 30.99 257.03 28.28 255.21 27.39 C 254.51 27.67 253.10 28.23 252.39 28.51 C 250.89 27.18 249.45 25.78 248.09 24.33 C 250.88 22.26 255.82 19.66 253.58 15.41 C 250.08 11.10 244.13 10.14 239.07 8.72 C 225.07 5.97 209.85 4.70 196.50 10.76 C 194.22 11.95 191.66 11.85 189.23 11.22 C 191.38 9.67 193.66 8.27 196.14 7.32 C 205.28 3.73 215.00 0.64 224.95 1.54 C 231.40 1.78 237.60 4.08 244.07 4.13 C 246.78 3.97 248.63 1.88 250.31 0.00 Z" />
<path fill="#00925f" opacity="1.00" d=" M 107.31 6.50 C 106.19 4.54 104.30 2.33 105.84 0.01 C 109.29 0.90 112.14 4.00 115.93 3.42 C 125.34 2.61 134.78 0.15 144.24 1.85 C 152.27 3.32 160.16 5.94 167.28 9.98 C 167.00 10.51 166.45 11.56 166.18 12.09 C 164.49 11.54 162.80 11.00 161.10 10.48 C 166.20 14.44 173.91 17.32 175.13 24.39 C 171.15 24.31 167.17 24.35 163.19 24.34 C 164.26 22.72 165.35 21.13 166.41 19.51 C 162.70 19.32 159.11 20.36 156.15 22.61 C 157.02 24.14 158.09 25.58 158.73 27.23 C 159.16 29.54 157.35 31.98 155.01 32.25 C 152.21 32.64 149.93 29.61 150.14 26.99 C 150.25 22.76 153.75 19.81 155.83 16.44 C 151.82 17.06 149.13 20.07 146.38 22.73 C 145.84 21.21 145.36 19.68 144.90 18.15 C 143.57 19.71 142.38 21.44 140.70 22.65 C 139.02 22.37 137.42 21.74 135.77 21.31 C 136.04 23.21 136.58 25.08 136.71 27.01 C 135.93 28.55 134.17 29.31 132.92 30.43 C 133.87 31.80 135.34 33.05 135.28 34.87 C 133.79 37.07 130.79 38.16 128.50 36.43 C 123.55 33.43 123.87 26.93 123.21 21.91 C 116.69 27.41 110.40 33.91 101.88 36.16 C 97.60 37.53 92.07 36.13 90.02 31.86 C 88.98 29.71 90.32 27.45 90.84 25.35 C 93.52 27.70 95.96 31.29 99.97 31.13 C 107.96 31.52 113.85 25.27 119.10 20.14 C 115.99 19.43 111.48 18.98 110.86 15.06 C 111.30 12.70 113.41 11.12 115.75 11.02 C 117.06 12.67 117.93 14.61 118.94 16.44 C 122.23 14.59 125.07 12.05 128.36 10.23 C 130.53 8.86 132.99 10.34 135.22 10.77 C 136.75 9.92 138.26 8.97 139.94 8.42 C 141.51 9.13 142.95 10.07 144.42 10.95 C 148.14 8.94 152.36 8.94 156.46 9.13 C 153.09 7.82 149.56 6.93 145.96 6.63 C 135.59 5.81 125.11 6.74 115.01 9.16 C 111.44 10.20 107.71 11.35 104.87 13.85 C 103.17 15.27 102.92 17.91 104.02 19.77 C 105.83 21.75 109.24 22.16 110.11 24.93 C 106.18 26.69 101.91 27.55 98.01 29.42 C 94.43 29.18 95.13 25.11 95.95 22.77 C 95.10 21.10 94.45 19.32 93.39 17.78 C 89.46 19.55 85.92 22.09 81.97 23.83 C 69.47 29.62 55.73 32.17 42.09 33.38 C 31.85 33.93 21.27 34.54 11.35 31.46 C 5.89 29.79 0.67 25.69 0.00 19.66 L 0.00 17.23 C 0.77 10.76 7.31 5.24 13.90 7.02 C 20.83 8.06 23.08 17.82 18.70 22.64 C 15.83 25.54 11.53 24.09 8.03 23.65 C 11.14 26.24 14.86 28.05 18.87 28.71 C 26.46 30.06 34.30 30.77 41.95 29.48 C 40.58 26.72 38.74 24.21 37.39 21.44 C 45.00 19.74 48.40 30.48 55.97 28.13 C 67.47 26.31 78.70 22.30 88.80 16.52 C 84.61 15.99 81.25 18.36 78.04 20.65 C 76.48 20.09 75.02 19.30 73.55 18.55 C 72.16 19.54 70.82 20.62 69.25 21.31 C 67.72 20.41 66.40 19.24 65.05 18.11 C 64.00 18.89 62.97 19.70 61.84 20.38 C 59.25 20.64 58.13 17.81 56.65 16.22 C 54.80 16.28 52.90 16.60 51.07 16.18 C 48.29 15.03 46.95 11.81 46.78 8.98 C 46.81 5.66 49.81 3.68 51.98 1.65 C 55.14 4.30 58.02 7.45 61.89 9.08 C 66.03 10.81 70.58 11.25 75.02 11.25 C 85.93 10.97 96.80 9.42 107.31 6.50 Z" />
<path fill="#00925f" opacity="1.00" d=" M 716.31 4.73 C 717.35 2.66 719.12 1.22 721.21 0.28 C 722.27 1.56 723.27 2.89 724.26 4.23 C 725.87 4.72 727.88 4.99 728.52 6.83 C 728.22 8.24 727.86 9.64 727.45 11.01 C 728.49 11.98 729.66 12.87 730.43 14.11 C 728.48 17.26 725.18 19.35 723.58 22.76 C 729.26 17.78 735.26 12.50 742.98 11.14 C 746.85 9.91 750.84 10.67 754.54 12.06 C 756.25 11.11 757.86 9.48 759.96 9.54 C 761.44 10.12 762.80 11.00 764.29 11.61 C 766.45 11.52 768.68 10.11 770.78 11.30 C 774.14 12.82 776.66 15.70 779.99 17.31 C 781.87 17.24 782.24 14.72 783.39 13.57 C 785.37 13.61 787.77 13.49 788.41 15.87 C 788.34 20.13 783.60 20.73 780.39 21.12 C 785.29 26.07 790.83 31.36 798.00 32.46 C 802.37 32.93 805.91 30.09 808.83 27.22 C 809.88 29.56 810.45 32.44 808.55 34.53 C 806.22 38.30 801.22 38.09 797.43 37.27 C 788.78 34.61 782.39 27.82 775.90 21.87 C 776.02 25.57 776.61 29.55 774.82 32.97 C 773.46 35.93 770.57 39.02 767.01 38.32 C 764.89 38.16 764.50 35.70 763.65 34.21 C 764.43 33.49 765.23 32.77 766.04 32.05 C 762.85 30.10 763.19 26.35 763.28 23.12 C 761.83 23.40 760.38 23.61 758.93 23.77 C 757.04 22.68 755.88 20.76 754.48 19.17 C 754.11 20.65 753.74 22.13 753.36 23.60 C 750.15 21.49 747.06 19.00 743.19 18.23 C 745.69 21.65 749.76 24.40 750.15 28.97 C 750.18 33.96 741.97 35.12 740.44 30.62 C 739.34 28.19 741.92 26.40 742.78 24.34 C 740.15 21.49 736.26 20.36 732.47 20.66 C 733.51 22.23 734.61 23.76 735.68 25.33 C 731.60 24.68 726.98 26.59 723.34 24.20 C 723.04 24.58 722.44 25.33 722.15 25.71 C 721.42 25.61 719.96 25.42 719.24 25.32 C 717.63 20.60 713.35 17.70 710.91 13.50 C 711.95 12.94 713.00 12.40 714.06 11.86 C 713.46 10.09 711.57 8.32 712.54 6.38 C 713.56 5.41 715.05 5.26 716.31 4.73 Z" />
<path fill="#00925f" opacity="1.00" d=" M 784.03 4.91 C 787.84 5.50 790.84 2.60 794.06 1.13 C 793.82 3.31 793.49 5.48 793.13 7.64 C 801.85 10.27 810.93 11.47 819.99 12.20 C 826.32 12.62 832.98 12.55 838.88 9.90 C 842.35 8.34 844.84 5.35 847.95 3.24 C 853.22 5.06 854.46 11.95 850.89 15.92 C 849.02 18.41 845.65 17.61 842.99 17.65 C 841.89 19.05 840.87 20.53 839.52 21.70 C 837.72 21.86 836.31 20.48 834.82 19.73 C 833.55 20.69 832.30 21.68 830.94 22.48 C 829.15 21.89 827.53 20.93 825.90 20.03 C 824.57 20.65 823.26 21.33 821.88 21.80 C 819.82 21.56 818.41 19.79 816.81 18.66 C 814.85 18.39 812.88 18.14 810.94 17.91 C 822.76 24.41 835.93 29.19 849.52 29.70 C 852.57 26.31 856.47 23.42 861.02 22.54 C 861.35 22.87 862.01 23.54 862.34 23.88 C 861.17 26.33 859.38 28.41 857.73 30.54 C 866.07 32.06 874.66 31.45 882.89 29.64 C 885.98 28.94 888.79 27.43 891.43 25.73 C 888.17 25.44 884.30 26.71 881.55 24.39 C 877.66 20.91 878.29 14.32 881.54 10.63 C 887.13 5.39 897.33 8.24 900.00 15.26 L 900.00 19.11 C 899.58 22.64 898.33 26.18 895.72 28.68 C 890.84 33.72 883.63 35.32 876.92 36.13 C 864.97 37.05 852.99 35.54 841.24 33.45 C 828.50 31.03 816.31 25.99 805.62 18.65 C 804.98 20.44 804.36 22.22 803.72 24.00 C 803.73 26.18 805.18 29.43 802.38 30.44 C 800.33 31.64 798.69 29.14 797.02 28.31 C 796.21 28.73 795.43 29.15 794.65 29.57 C 793.07 28.51 791.47 27.44 790.29 25.92 C 791.25 23.46 794.06 22.63 795.51 20.55 C 796.58 18.36 795.40 15.79 793.50 14.53 C 789.58 11.74 784.79 10.67 780.20 9.60 C 767.67 7.03 754.31 5.91 741.99 10.12 C 738.47 11.11 734.71 14.04 731.12 11.62 C 739.69 6.81 749.30 3.70 759.07 2.58 C 767.49 1.50 775.70 4.24 784.03 4.91 Z" />
<path fill="#00925f" opacity="1.00" d=" M 168.37 30.55 C 167.92 28.47 169.03 26.24 171.18 25.69 C 173.95 26.63 176.09 28.78 178.81 29.80 C 181.73 28.59 184.25 26.61 187.19 25.43 C 188.77 27.51 190.32 31.43 186.94 32.62 C 183.42 33.45 181.65 36.68 179.07 38.87 C 176.89 37.56 175.04 35.81 173.53 33.77 C 171.69 32.99 168.85 32.94 168.37 30.55 Z" />
<path fill="#00925f" opacity="1.00" d=" M 80.73 31.07 C 80.21 28.64 82.73 27.53 84.18 26.18 C 86.21 28.65 86.89 31.80 86.83 34.93 C 84.40 34.76 81.08 33.94 80.73 31.07 Z" />
<path fill="#00925f" opacity="1.00" d=" M 273.17 27.11 C 275.12 27.20 276.96 28.97 276.70 31.00 C 277.00 33.88 273.30 36.11 270.77 35.30 C 271.46 32.57 271.37 29.38 273.17 27.11 Z" />
<path fill="#00925f" opacity="1.00" d=" M 710.95 33.07 C 708.70 31.21 709.97 26.98 712.90 26.67 C 715.47 27.81 717.72 29.55 720.13 31.00 C 722.71 29.62 725.10 27.75 727.96 26.93 C 730.50 27.29 731.59 30.99 729.91 32.85 C 728.14 34.14 725.72 34.39 724.36 36.21 C 723.32 37.31 722.36 38.49 721.12 39.35 C 718.26 39.52 716.75 36.71 715.08 34.90 C 713.68 34.33 712.23 33.86 710.95 33.07 Z" />
<path fill="#00925f" opacity="1.00" d=" M 622.46 33.50 C 620.82 31.30 622.80 28.35 625.02 27.48 C 628.13 29.03 627.61 33.05 627.88 35.95 C 625.88 35.69 623.56 35.45 622.46 33.50 Z" />
<path fill="#00925f" opacity="1.00" d=" M 813.36 32.73 C 813.78 30.78 814.48 28.89 815.71 27.30 C 816.99 28.94 819.28 30.67 818.54 33.06 C 817.93 35.23 815.53 36.01 813.70 36.83 C 811.96 35.98 813.19 34.06 813.36 32.73 Z" />
<path fill="#00925f" opacity="1.00" d=" M 72.50 31.86 C 73.62 30.69 74.79 29.56 75.99 28.48 C 77.61 30.23 78.56 32.41 78.82 34.77 C 76.25 35.03 74.19 33.62 72.50 31.86 Z" />
<path fill="#00925f" opacity="1.00" d=" M 281.30 28.80 C 282.31 29.50 283.34 30.18 284.26 31.00 C 284.98 33.59 282.16 35.26 280.05 35.85 C 277.50 33.85 280.52 30.96 281.30 28.80 Z" />
<path fill="#00925f" opacity="1.00" d=" M 614.03 33.00 C 614.47 31.58 615.47 30.42 616.87 29.86 C 619.21 30.91 619.42 33.63 619.90 35.82 C 617.64 35.67 615.25 35.11 614.03 33.00 Z" />
<path fill="#00925f" opacity="1.00" d=" M 820.72 36.14 C 821.03 33.67 822.30 31.52 823.93 29.71 C 824.79 31.01 826.99 32.20 826.18 34.04 C 824.82 35.61 822.90 37.47 820.72 36.14 Z" />
<path fill="#00925f" opacity="1.00" d=" M 445.00 49.21 C 447.15 42.99 447.36 36.31 449.29 30.04 C 451.17 37.27 451.73 44.80 454.15 51.91 C 456.23 58.14 457.84 65.06 455.50 71.45 C 454.74 73.66 452.75 75.06 450.72 76.00 L 448.37 76.00 C 445.22 75.47 442.85 72.98 442.19 69.91 C 439.86 62.91 442.92 55.84 445.00 49.21 Z" />
<path fill="#00925f" opacity="1.00" d=" M 441.32 36.59 L 442.02 36.02 C 443.44 41.07 440.54 45.92 438.26 50.23 C 435.49 54.63 431.74 59.88 425.98 59.91 C 421.61 59.86 419.17 54.01 421.72 50.66 C 424.38 46.93 429.12 46.03 432.93 43.94 C 436.36 42.29 438.48 38.99 441.32 36.59 Z" />
<path fill="#00925f" opacity="1.00" d=" M 460.38 51.62 C 457.44 46.92 454.45 41.49 455.75 35.75 C 458.56 38.43 460.90 41.74 464.42 43.58 C 468.34 45.94 473.49 46.85 476.05 51.00 C 478.43 54.63 475.48 60.45 471.00 60.18 C 466.19 59.53 462.88 55.42 460.38 51.62 Z" />
</g>
</svg>
