<?xml version="1.0" encoding="UTF-8" ?>
<!DOCTYPE svg PUBLIC "-//W3C//DTD SVG 1.1//EN" "http://www.w3.org/Graphics/SVG/1.1/DTD/svg11.dtd">
<svg width="900pt" height="76pt" viewBox="0 0 900 76" version="1.1" xmlns="http://www.w3.org/2000/svg">
<g id="#00925fff">
<path fill="#00925f" opacity="1.00" d=" M 447.45 0.00 L 450.51 0.00 C 452.70 0.79 454.71 2.29 455.51 4.56 C 457.82 10.93 456.25 17.81 454.17 24.01 C 451.74 31.13 451.18 38.68 449.29 45.94 C 447.37 39.66 447.15 32.99 444.99 26.76 C 442.92 20.14 439.87 13.10 442.18 6.11 C 442.77 3.30 444.88 1.16 447.45 0.00 Z" />
<path fill="#00925f" opacity="1.00" d=" M 424.30 16.44 C 427.36 15.39 430.67 16.92 432.91 19.02 C 437.25 23.07 440.16 28.48 441.97 34.09 C 442.67 35.99 442.52 38.03 441.98 39.94 C 438.95 37.71 436.96 34.27 433.62 32.44 C 429.84 30.18 425.06 29.39 422.13 25.87 C 419.47 23.09 420.70 17.79 424.30 16.44 Z" />
<path fill="#00925f" opacity="1.00" d=" M 460.33 24.46 C 462.83 20.64 466.13 16.52 470.94 15.82 C 475.46 15.51 478.47 21.40 476.03 25.04 C 473.61 28.95 468.82 29.96 465.06 32.07 C 461.24 33.88 458.73 37.38 455.73 40.21 C 454.47 34.51 457.42 29.13 460.33 24.46 Z" />
<path fill="#00925f" opacity="1.00" d=" M 383.74 28.66 C 386.00 21.28 395.75 17.73 402.30 21.70 C 406.71 24.00 409.36 30.10 406.56 34.55 C 404.60 37.88 398.67 37.84 397.44 33.92 C 396.22 30.84 398.91 28.48 400.71 26.42 C 398.36 25.53 395.80 24.09 393.32 25.41 C 385.37 28.11 385.33 40.80 392.69 44.26 C 396.62 45.82 400.85 44.10 404.64 42.87 C 413.05 39.97 421.98 37.40 430.96 38.61 C 439.00 39.96 445.27 45.91 449.35 52.67 C 452.53 47.84 456.27 43.00 461.82 40.78 C 470.69 36.49 480.75 39.14 489.79 41.42 C 494.76 42.61 499.73 45.70 504.96 44.32 C 513.26 41.69 513.36 27.67 504.91 25.15 C 502.40 23.81 499.86 25.18 497.62 26.32 C 499.48 28.34 502.56 30.80 500.89 33.91 C 499.40 38.00 493.03 37.36 491.45 33.69 C 488.90 28.30 493.14 21.91 498.50 20.42 C 505.41 18.04 513.72 22.77 515.11 29.96 C 516.15 35.67 515.49 42.76 510.27 46.31 C 506.31 49.49 500.98 49.00 496.27 48.47 C 502.01 55.09 508.06 61.53 514.98 66.94 C 519.68 70.66 526.44 73.08 532.13 70.09 C 538.54 67.14 538.83 55.64 531.26 53.96 C 530.80 54.18 529.89 54.62 529.43 54.84 C 530.10 56.91 531.44 59.17 530.22 61.31 C 528.74 64.75 523.37 64.36 521.46 61.51 C 518.34 57.26 521.17 50.65 526.08 49.26 C 531.38 47.61 536.72 50.26 540.49 53.89 C 541.97 51.33 543.27 48.46 545.81 46.76 C 551.38 42.89 558.34 41.85 564.97 41.40 C 582.82 40.72 600.98 42.77 617.79 49.04 C 623.67 51.16 628.96 54.53 634.55 57.29 C 635.61 55.75 636.28 53.98 637.06 52.28 C 636.18 49.75 635.80 46.49 638.89 45.33 C 640.68 46.00 642.33 46.98 644.00 47.90 C 646.41 48.32 649.01 48.51 651.06 50.02 C 650.88 53.40 645.83 53.02 644.88 56.07 C 643.49 59.11 646.13 61.99 648.73 63.19 C 655.45 66.34 662.89 67.37 670.19 68.26 C 678.49 69.01 687.09 69.41 695.14 66.80 C 691.87 66.16 688.64 65.35 685.58 64.03 C 684.38 64.80 683.22 65.63 681.94 66.26 C 679.72 66.73 677.87 64.50 675.64 64.79 C 673.55 64.87 671.24 65.94 669.33 64.64 C 666.17 62.74 663.36 60.30 660.05 58.64 C 658.81 60.39 658.48 63.60 655.88 63.84 C 653.43 63.57 651.17 60.90 652.61 58.50 C 654.07 55.41 657.85 55.57 660.74 55.25 C 655.35 49.95 649.21 43.30 640.91 44.05 C 636.97 43.92 634.45 47.34 631.82 49.72 C 631.30 47.40 629.92 44.77 631.51 42.55 C 633.92 38.42 639.55 37.61 643.79 38.98 C 652.04 41.65 658.36 47.89 664.70 53.52 C 665.18 48.97 664.60 43.60 668.05 40.02 C 669.84 38.22 673.19 36.48 675.33 38.73 C 677.32 40.42 675.60 42.91 675.05 44.86 C 676.06 45.91 677.15 46.91 678.03 48.10 C 677.90 50.13 677.38 52.11 676.99 54.10 C 678.61 53.41 680.21 52.63 681.93 52.18 C 683.69 53.22 684.71 55.07 685.95 56.63 C 686.38 55.36 686.86 54.10 687.41 52.87 C 690.92 54.50 693.03 58.39 697.24 58.71 C 694.74 54.94 690.48 51.06 691.72 46.07 C 692.58 42.69 697.38 41.58 699.40 44.57 C 701.82 47.22 698.77 50.05 697.46 52.34 C 700.46 54.56 704.07 55.58 707.79 55.57 C 706.76 53.93 705.71 52.31 704.66 50.68 C 708.70 50.78 712.74 50.79 716.79 50.72 C 714.71 58.27 706.80 61.49 700.56 64.96 C 703.41 64.25 706.26 63.44 709.22 63.27 C 707.19 66.82 703.12 68.00 699.56 69.37 C 692.27 71.78 684.74 74.15 676.96 73.77 C 669.90 73.74 662.99 72.01 655.97 71.64 C 652.39 71.32 649.94 75.24 646.38 74.62 C 646.08 72.42 647.27 70.47 648.09 68.52 C 637.97 65.75 627.52 64.37 617.07 63.81 C 611.54 63.52 605.89 64.43 600.95 66.98 C 597.87 68.61 595.44 71.17 592.84 73.45 C 590.83 71.62 588.08 69.95 587.75 67.00 C 587.50 64.28 588.55 61.38 590.64 59.60 C 592.55 57.85 595.24 58.91 597.51 59.04 C 598.83 57.37 599.88 55.23 602.01 54.43 C 603.73 54.76 604.85 56.24 606.19 57.26 C 607.19 56.27 608.15 55.19 609.32 54.37 C 611.48 53.23 613.01 55.83 614.66 56.83 C 616.04 55.91 617.40 54.95 618.93 54.26 C 620.96 55.11 622.57 56.68 624.21 58.11 C 626.13 58.24 628.04 58.35 629.98 58.42 C 618.53 52.32 606.00 47.34 592.90 46.80 C 587.79 48.38 584.43 55.00 578.32 53.59 C 579.70 50.77 581.41 48.13 583.12 45.50 C 573.85 44.82 564.30 44.70 555.34 47.49 C 552.87 48.23 550.86 49.90 548.91 51.49 C 552.23 51.04 556.06 49.65 558.99 52.05 C 564.27 56.75 561.58 67.68 554.04 68.18 C 549.41 69.35 545.44 66.32 542.13 63.53 C 540.67 66.72 539.58 70.40 536.59 72.54 C 531.16 76.76 523.42 76.43 517.48 73.48 C 508.54 69.12 502.43 61.01 495.38 54.30 C 495.61 59.52 495.66 65.13 492.73 69.70 C 489.40 75.20 481.73 76.79 476.09 74.11 C 470.58 71.88 467.39 64.80 470.41 59.41 C 472.21 54.47 478.78 51.45 483.30 54.71 C 487.15 56.90 486.58 64.23 481.97 64.90 C 478.27 65.39 477.50 61.13 476.16 58.68 C 475.02 60.62 473.44 62.65 473.94 65.05 C 474.54 69.99 480.61 72.79 485.02 70.94 C 488.76 69.80 490.69 65.74 490.88 62.07 C 491.43 56.31 489.73 49.70 484.56 46.44 C 476.87 41.67 465.96 42.09 459.02 48.06 C 453.55 52.78 451.51 60.83 453.58 67.68 C 454.28 70.10 456.51 72.03 459.03 72.27 C 461.07 72.35 462.39 70.55 463.82 69.40 C 463.50 68.77 462.86 67.51 462.53 66.88 C 461.30 67.43 460.05 67.93 458.78 68.38 C 455.81 67.63 455.11 63.35 457.53 61.58 C 461.72 58.22 468.29 62.94 467.48 67.96 C 467.56 72.11 464.17 75.83 459.94 75.73 C 455.40 76.35 451.88 73.10 449.21 69.91 C 446.93 72.40 444.53 75.35 440.92 75.73 C 436.84 76.56 432.03 74.22 431.23 69.89 C 429.82 65.54 433.19 60.19 437.92 60.22 C 440.86 59.87 443.29 63.14 442.31 65.89 C 441.47 66.97 440.47 67.90 439.51 68.86 C 438.12 68.03 436.74 67.21 435.35 66.40 C 435.41 67.87 435.63 69.31 436.01 70.73 C 438.69 73.74 444.03 71.58 444.92 67.94 C 446.60 62.51 445.69 56.27 442.48 51.56 C 436.66 43.17 424.35 41.25 415.45 45.49 C 407.81 49.20 405.60 59.70 408.96 67.00 C 411.73 73.02 421.80 73.16 424.20 66.80 C 425.62 63.90 423.65 61.03 422.22 58.60 C 421.30 60.52 420.79 62.70 419.40 64.36 C 417.38 65.57 414.17 65.16 413.20 62.79 C 411.34 58.88 414.10 53.91 418.45 53.54 C 426.48 52.32 432.41 63.23 427.52 69.50 C 423.31 76.99 411.26 77.74 406.36 70.62 C 402.58 65.94 402.99 59.67 403.27 54.03 C 396.61 60.12 391.21 67.69 383.40 72.43 C 377.64 76.10 369.92 77.27 363.66 74.18 C 360.04 72.30 358.15 68.52 356.48 65.00 C 352.05 68.84 345.19 70.35 340.12 66.90 C 336.34 63.55 335.58 56.90 339.00 53.05 C 341.77 50.24 346.10 51.64 349.56 51.43 C 347.22 49.74 344.70 48.22 341.87 47.51 C 333.36 45.19 324.35 45.11 315.64 46.21 C 317.43 48.66 319.23 51.10 320.77 53.70 C 315.10 55.61 311.26 49.84 306.89 47.40 C 293.76 47.49 281.24 52.78 269.75 58.74 C 271.54 58.63 273.34 58.50 275.14 58.33 C 276.38 57.30 277.59 56.22 278.99 55.39 C 280.89 54.77 282.43 56.56 284.04 57.27 C 285.61 56.28 287.08 54.91 288.98 54.60 C 290.59 55.22 291.72 56.62 293.00 57.72 C 294.32 56.58 295.62 54.50 297.67 55.33 C 299.23 56.17 299.88 58.00 300.92 59.36 C 303.22 59.45 305.86 58.66 307.93 60.00 C 310.51 62.29 311.75 66.29 310.34 69.54 C 309.32 71.37 307.53 72.60 306.02 74.01 C 301.63 69.67 296.49 65.52 290.07 65.02 C 277.11 63.73 263.93 65.82 251.49 69.41 C 251.22 71.53 252.21 73.78 251.86 76.00 L 250.50 76.00 C 248.77 73.63 246.13 71.70 243.07 71.86 C 237.30 72.17 231.73 74.01 225.96 74.38 C 218.88 75.13 211.74 74.00 205.00 71.81 C 199.55 70.04 193.91 68.34 189.29 64.82 C 193.92 63.06 198.08 66.25 202.38 67.44 C 209.06 69.33 216.07 69.93 222.98 69.40 C 231.84 68.77 240.86 67.69 249.05 64.07 C 251.39 62.90 254.47 61.13 254.08 58.06 C 253.81 54.79 250.22 53.61 248.08 51.72 C 249.42 50.19 250.88 48.77 252.45 47.48 C 253.16 47.76 254.57 48.33 255.28 48.61 C 257.05 47.66 259.08 45.06 261.24 46.69 C 263.42 48.01 261.98 51.00 261.87 53.00 C 262.48 54.74 263.09 56.49 263.70 58.23 C 267.18 56.27 270.48 53.99 274.01 52.10 C 283.38 47.16 293.73 44.41 304.12 42.62 C 313.99 41.13 324.01 40.14 334.00 40.87 C 340.09 41.48 346.50 42.63 351.49 46.42 C 354.41 48.61 356.16 51.89 357.80 55.07 C 360.33 51.97 363.73 49.21 367.94 49.20 C 372.84 48.30 378.21 51.85 378.46 57.01 C 379.05 61.16 374.45 66.01 370.34 63.46 C 366.54 61.90 368.42 57.44 368.73 54.42 C 366.53 55.07 363.62 55.16 362.52 57.55 C 360.21 62.24 362.23 68.88 367.29 70.82 C 373.04 72.99 379.37 70.60 383.91 66.91 C 390.72 61.44 396.51 54.85 402.39 48.43 C 398.10 49.18 393.34 49.92 389.43 47.47 C 382.90 43.94 381.67 35.18 383.74 28.66 Z" />
<path fill="#00925f" opacity="1.00" d=" M 715.10 41.10 C 716.76 39.28 718.29 36.38 721.17 36.69 C 723.72 38.60 725.29 41.72 728.67 42.42 C 731.88 43.34 731.03 48.80 727.90 49.05 C 725.06 48.24 722.70 46.37 720.14 44.99 C 717.74 46.44 715.49 48.18 712.92 49.32 C 709.96 49.05 708.69 44.76 710.97 42.91 C 712.25 42.13 713.70 41.66 715.10 41.10 Z" />
<path fill="#00925f" opacity="1.00" d=" M 173.54 42.25 C 175.02 40.18 176.87 38.42 179.08 37.13 C 180.66 38.54 182.06 40.14 183.52 41.67 C 185.09 43.09 187.97 42.92 188.78 45.14 C 189.81 47.06 187.89 48.89 187.18 50.57 C 184.24 49.40 181.74 47.40 178.82 46.20 C 175.49 46.95 172.23 52.24 168.99 48.93 C 168.09 47.33 167.84 44.84 169.54 43.66 C 170.81 43.04 172.19 42.68 173.54 42.25 Z" />
<path fill="#00925f" opacity="1.00" d=" M 763.67 41.85 C 764.47 40.33 764.84 37.91 766.94 37.69 C 770.25 36.96 773.08 39.68 774.49 42.39 C 776.58 45.91 776.02 50.12 776.05 54.02 C 782.46 48.06 788.85 41.37 797.45 38.72 C 801.21 37.93 806.16 37.68 808.51 41.40 C 810.42 43.50 809.97 46.46 808.75 48.77 C 805.74 45.57 801.65 42.72 797.01 43.67 C 790.31 45.22 785.05 50.11 780.39 54.89 C 783.59 55.28 788.35 55.86 788.39 60.12 C 787.81 62.52 785.35 62.38 783.40 62.42 C 782.40 61.00 781.40 59.60 780.33 58.25 C 777.08 60.30 774.25 63.00 770.79 64.69 C 768.68 65.91 766.43 64.48 764.25 64.39 C 762.78 65.01 761.43 65.88 759.96 66.47 C 757.85 66.52 756.26 64.89 754.54 63.93 C 747.24 67.21 738.92 64.55 732.53 60.46 C 729.18 58.57 726.78 55.47 723.62 53.32 C 725.21 56.70 728.53 58.74 730.40 61.90 C 729.72 63.20 728.47 64.01 727.43 64.97 C 727.85 66.35 728.21 67.75 728.52 69.16 C 727.86 70.98 725.92 71.37 724.27 71.75 C 723.27 72.99 722.63 74.74 721.06 75.35 C 719.45 75.08 718.21 74.05 717.30 72.77 C 716.27 71.01 714.15 70.70 712.58 69.64 C 711.52 67.70 713.47 65.90 714.07 64.14 C 713.01 63.61 711.97 63.08 710.93 62.55 C 713.34 58.20 717.84 55.30 719.32 50.39 C 721.01 50.42 722.63 50.82 724.01 51.87 C 724.24 51.50 724.70 50.76 724.93 50.40 C 728.49 50.87 732.09 50.78 735.68 50.66 C 734.62 52.22 733.53 53.76 732.49 55.33 C 736.41 55.81 740.06 54.19 743.00 51.70 C 741.83 49.75 739.30 47.85 740.45 45.34 C 742.03 40.89 750.19 42.06 750.15 47.04 C 749.76 51.59 745.72 54.34 743.19 57.72 C 747.12 57.05 750.10 54.30 753.58 52.61 C 753.89 54.04 754.20 55.47 754.52 56.90 C 755.95 55.34 756.95 53.11 759.01 52.26 C 760.44 52.40 761.86 52.61 763.28 52.89 C 763.18 49.65 762.85 45.88 766.06 43.96 C 765.25 43.26 764.46 42.55 763.67 41.85 Z" />
<path fill="#00925f" opacity="1.00" d=" M 128.51 39.56 C 130.78 37.86 133.76 38.90 135.24 41.09 C 135.45 42.98 133.85 44.20 132.85 45.57 C 134.23 46.63 135.81 47.52 136.81 48.99 C 136.60 51.00 136.03 52.95 135.59 54.92 C 137.27 54.32 138.92 53.58 140.70 53.27 C 142.37 54.53 143.57 56.29 144.90 57.90 C 145.36 56.33 145.86 54.78 146.41 53.24 C 149.12 55.91 151.78 58.99 155.81 59.52 C 153.73 56.17 150.25 53.24 150.14 49.03 C 149.91 46.86 151.37 44.94 153.16 43.90 C 156.12 42.86 159.34 45.79 158.73 48.81 C 158.07 50.44 157.02 51.85 156.14 53.36 C 159.08 55.63 162.67 56.70 166.38 56.47 C 165.34 54.86 164.25 53.27 163.21 51.66 C 167.14 51.65 171.07 51.70 175.00 51.54 C 174.70 52.93 174.78 54.54 173.70 55.63 C 170.26 59.73 165.64 62.56 161.12 65.32 C 163.34 64.79 165.81 63.73 167.83 65.42 C 161.09 70.00 153.06 72.27 145.18 73.99 C 135.44 75.98 125.65 73.44 115.95 72.58 C 112.16 71.87 109.44 75.20 105.95 75.89 C 104.03 73.77 106.33 71.39 107.34 69.51 C 100.92 67.86 94.45 66.32 87.84 65.68 C 79.65 64.91 71.11 63.74 63.13 66.43 C 58.69 67.89 55.45 71.39 52.00 74.34 C 50.03 72.50 47.44 70.83 46.88 67.99 C 46.51 65.31 47.69 62.47 49.65 60.64 C 51.61 58.96 54.34 59.78 56.67 59.82 C 58.12 58.19 59.27 55.29 61.90 55.63 C 63.00 56.30 64.01 57.12 65.04 57.90 C 66.33 56.82 67.58 55.66 69.08 54.85 C 70.87 54.96 72.10 56.56 73.53 57.49 C 74.98 56.72 76.41 55.85 78.00 55.37 C 81.27 57.47 84.45 60.02 88.63 59.57 C 85.57 57.36 82.10 55.83 78.62 54.43 C 70.07 51.13 61.23 47.77 51.96 47.69 C 46.91 49.47 43.52 55.84 37.37 54.51 C 38.76 51.71 40.51 49.11 42.31 46.55 C 33.94 45.31 25.36 45.85 17.12 47.69 C 13.73 48.41 10.69 50.17 8.06 52.38 C 11.37 51.97 15.23 50.56 18.15 52.89 C 21.74 55.90 21.51 61.62 19.36 65.41 C 17.03 69.13 12.06 69.70 8.11 68.86 C 4.04 67.47 1.45 63.89 0.00 59.99 L 0.00 57.02 C 0.38 48.81 8.71 44.54 15.87 43.36 C 28.16 41.26 40.77 42.20 53.06 43.90 C 63.92 45.70 74.81 48.32 84.61 53.48 C 87.60 54.98 90.36 56.91 93.43 58.24 C 94.44 56.64 95.15 54.87 95.96 53.17 C 95.08 50.82 94.46 46.83 98.01 46.55 C 101.84 48.57 106.22 49.15 110.04 51.13 C 109.24 54.56 103.71 54.20 103.42 58.01 C 102.82 60.98 105.51 63.03 107.84 64.18 C 115.03 67.71 123.16 68.54 131.03 69.39 C 139.49 69.80 148.36 70.22 156.34 66.86 C 152.27 67.08 148.09 67.03 144.42 65.03 C 142.95 65.93 141.52 66.87 139.95 67.59 C 138.26 67.05 136.75 66.08 135.22 65.21 C 133.48 65.67 131.77 66.32 129.96 66.39 C 125.83 64.98 122.77 61.64 119.06 59.47 C 118.00 61.33 117.07 63.30 115.72 64.97 C 113.38 64.88 111.31 63.29 110.86 60.96 C 111.46 57.02 115.99 56.55 119.10 55.87 C 113.88 50.74 107.99 44.51 100.02 44.87 C 96.00 44.67 93.55 48.25 90.90 50.64 C 90.29 48.54 88.94 46.27 90.03 44.10 C 92.11 39.86 97.62 38.48 101.89 39.85 C 110.42 42.07 116.65 48.63 123.23 54.05 C 123.86 49.03 123.57 42.54 128.51 39.56 Z" />
<path fill="#00925f" opacity="1.00" d=" M 223.07 40.14 C 225.17 37.31 229.12 38.75 231.09 40.95 C 234.64 44.62 234.53 50.11 234.24 54.86 C 240.67 49.07 246.97 42.47 255.46 39.84 C 259.25 38.66 264.20 38.79 266.60 42.46 C 268.41 44.58 267.93 47.46 267.11 49.89 C 264.23 46.77 260.40 44.02 255.90 44.68 C 248.91 45.64 243.69 51.02 238.79 55.64 C 240.54 56.07 242.37 56.31 244.05 57.01 C 246.23 57.89 246.07 60.68 246.81 62.53 C 245.27 62.90 243.74 63.38 242.15 63.44 C 240.85 62.20 239.76 60.77 238.61 59.41 C 235.68 61.08 233.15 63.34 230.29 65.12 C 227.98 66.60 225.18 65.42 222.65 65.69 C 221.02 66.16 219.47 66.85 217.83 67.29 C 216.02 67.14 214.62 65.76 213.06 64.97 C 208.23 66.71 202.93 66.75 198.13 64.88 C 191.62 62.80 186.76 57.91 181.56 53.75 C 183.59 57.09 186.48 59.73 189.12 62.56 C 188.83 62.93 188.25 63.69 187.96 64.06 C 184.22 65.64 189.31 70.98 184.90 71.85 C 182.37 71.95 181.21 74.24 179.84 76.00 L 178.26 76.00 C 177.03 74.89 175.84 73.75 174.67 72.58 C 173.27 71.79 171.83 71.03 170.55 70.04 C 171.00 68.52 171.63 67.08 172.23 65.62 C 171.41 64.71 170.58 63.82 169.84 62.85 C 172.41 59.01 175.95 55.89 178.06 51.71 C 183.43 51.51 188.81 51.87 194.18 51.59 C 193.16 53.12 192.14 54.65 191.12 56.19 C 194.95 56.72 198.45 55.00 201.44 52.78 C 200.45 50.67 197.25 48.63 198.91 46.10 C 200.63 41.84 208.67 43.21 208.30 47.98 C 208.21 52.73 203.93 55.71 201.11 58.98 C 205.13 58.39 208.07 55.57 211.40 53.54 C 211.96 54.79 212.48 56.07 212.94 57.36 C 213.94 56.23 214.89 55.06 216.02 54.05 C 217.62 52.31 220.06 53.89 221.98 54.13 C 221.64 50.96 220.96 47.42 223.75 45.12 C 223.05 43.55 221.49 41.71 223.07 40.14 Z" />
<path fill="#00925f" opacity="1.00" d=" M 813.22 39.20 C 815.32 39.78 817.89 40.66 818.56 43.00 C 819.22 45.33 817.02 47.02 815.83 48.68 C 813.82 46.08 812.46 42.42 813.22 39.20 Z" />
<path fill="#00925f" opacity="1.00" d=" M 820.60 40.06 C 821.20 39.83 822.40 39.37 823.00 39.14 C 824.22 40.36 826.08 41.23 826.51 43.05 C 825.72 44.19 824.87 45.28 823.95 46.32 C 822.29 44.55 821.29 42.35 820.60 40.06 Z" />
<path fill="#00925f" opacity="1.00" d=" M 279.65 40.65 C 281.95 39.46 286.02 43.65 283.62 45.65 C 281.01 49.10 277.79 42.20 279.65 40.65 Z" />
<path fill="#00925f" opacity="1.00" d=" M 614.52 42.41 C 615.66 40.54 617.97 40.45 619.90 40.19 C 619.43 42.38 619.20 45.06 616.90 46.13 C 615.60 45.46 613.36 44.09 614.52 42.41 Z" />
<path fill="#00925f" opacity="1.00" d=" M 622.14 43.06 C 623.10 40.76 625.65 40.24 627.87 40.04 C 627.91 43.22 627.62 46.64 625.11 48.93 C 623.52 47.50 620.95 45.51 622.14 43.06 Z" />
<path fill="#00925f" opacity="1.00" d=" M 841.95 42.42 C 853.48 40.42 865.22 38.95 876.93 39.87 C 883.41 40.65 890.33 42.16 895.22 46.82 C 898.05 49.31 899.50 52.96 900.00 56.63 L 900.00 60.56 C 897.90 66.54 890.56 69.48 884.77 67.40 C 878.81 65.36 876.95 56.61 881.07 52.06 C 883.71 49.17 887.97 50.54 891.38 50.30 C 888.80 48.56 886.02 47.05 882.96 46.38 C 874.70 44.56 866.09 43.91 857.73 45.48 C 859.40 47.61 861.18 49.70 862.38 52.15 C 861.52 53.41 860.43 53.69 859.10 52.99 C 855.37 51.69 852.13 49.26 849.55 46.31 C 835.99 46.77 822.91 51.60 811.07 57.97 C 812.97 57.79 814.91 57.59 816.84 57.37 C 818.19 56.25 819.51 55.04 821.10 54.23 C 822.85 54.19 824.32 55.37 825.91 56.01 C 827.52 55.08 829.12 54.08 830.92 53.51 C 832.31 54.32 833.56 55.34 834.84 56.31 C 836.33 55.54 837.72 54.01 839.56 54.33 C 840.91 55.48 841.89 56.97 842.98 58.36 C 844.85 58.35 846.76 58.10 848.63 58.48 C 851.97 59.78 853.18 63.79 852.89 67.08 C 852.58 69.79 850.16 71.53 847.97 72.76 C 844.85 70.68 842.38 67.67 838.91 66.11 C 832.70 63.32 825.68 63.37 819.02 63.87 C 810.23 64.65 801.42 65.81 792.97 68.42 C 793.51 70.54 794.00 72.68 794.43 74.83 C 791.04 73.48 787.95 70.63 784.08 71.08 C 776.06 71.70 768.19 74.33 760.08 73.51 C 749.96 72.57 740.05 69.30 731.14 64.45 C 734.37 62.02 737.91 64.55 741.14 65.58 C 753.42 70.05 766.87 69.07 779.47 66.55 C 784.29 65.46 789.33 64.40 793.44 61.51 C 795.40 60.24 796.60 57.62 795.49 55.40 C 794.12 53.27 790.99 52.66 790.39 50.00 C 791.47 48.43 793.14 47.47 794.70 46.44 C 795.46 46.85 796.24 47.27 797.02 47.69 C 798.69 46.86 800.35 44.35 802.40 45.56 C 805.19 46.58 803.73 49.80 803.71 51.99 C 804.36 53.77 804.98 55.56 805.62 57.35 C 816.51 49.88 828.95 44.78 841.95 42.42 Z" />
<path fill="#00925f" opacity="1.00" d=" M 72.50 44.11 C 74.23 42.76 76.17 40.28 78.62 41.63 C 78.57 43.43 78.22 45.51 76.63 46.61 C 74.67 47.56 73.71 45.14 72.50 44.11 Z" />
<path fill="#00925f" opacity="1.00" d=" M 80.73 44.97 C 81.04 42.09 84.39 41.22 86.83 41.07 C 86.88 44.20 86.24 47.36 84.18 49.81 C 82.74 48.48 80.23 47.37 80.73 44.97 Z" />
<path fill="#00925f" opacity="1.00" d=" M 270.68 40.19 C 273.15 40.68 277.00 41.70 276.71 44.94 C 276.97 46.90 275.25 48.77 273.32 48.87 C 271.09 46.68 271.61 43.01 270.68 40.19 Z" />
</g>
</svg>
